<svg width="1386" height="315" viewBox="144 139 1386 315" fill="none" xmlns="http://www.w3.org/2000/svg">

<path d="M718.642 339.971L712.182 377.116C667.931 386.806 630.463 392.943 587.181 397.465V360.643C630.14 355.798 674.068 349.984 718.642 339.971ZM716.058 284.092L722.518 247.27H880.788L874.328 284.092H716.058ZM723.164 222.399L729.624 185.577H872.067L865.607 222.399H723.164ZM684.727 441.716H645.644V301.211L651.781 290.229V245.655H684.727V441.716ZM706.045 222.399H587.181V185.577H712.505L706.045 222.399ZM703.138 315.746H601.07C591.38 315.746 585.889 308.963 588.796 296.689L622.711 156.184H663.086L633.047 278.924H709.598L703.138 315.746ZM735.761 404.571L746.42 374.532C753.849 378.408 761.601 378.731 769.03 377.439C786.795 374.209 802.622 362.258 816.188 346.431H749.004C740.606 346.431 733.823 339.648 736.407 327.374L773.229 156.184H814.573L780.012 309.932H861.731C872.39 309.932 877.235 320.268 872.39 330.604C860.439 356.444 834.276 382.607 802.622 397.142C820.387 403.279 846.227 405.217 866.899 402.956L855.594 441.716C804.56 440.101 762.893 427.827 735.761 404.571ZM1041.64 339.971L1035.18 377.116C990.931 386.806 953.463 392.943 910.181 397.465V360.643C953.14 355.798 997.068 349.984 1041.64 339.971ZM1039.06 284.092L1045.52 247.27H1203.79L1197.33 284.092H1039.06ZM1046.16 222.399L1052.62 185.577H1195.07L1188.61 222.399H1046.16ZM1007.73 441.716H968.644V301.211L974.781 290.229V245.655H1007.73V441.716ZM1029.05 222.399H910.181V185.577H1035.51L1029.05 222.399ZM1026.14 315.746H924.07C914.38 315.746 908.889 308.963 911.796 296.689L945.711 156.184H986.086L956.047 278.924H1032.6L1026.14 315.746ZM1058.76 404.571L1069.42 374.532C1076.85 378.408 1084.6 378.731 1092.03 377.439C1109.8 374.209 1125.62 362.258 1139.19 346.431H1072C1063.61 346.431 1056.82 339.648 1059.41 327.374L1096.23 156.184H1137.57L1103.01 309.932H1184.73C1195.39 309.932 1200.24 320.268 1195.39 330.604C1183.44 356.444 1157.28 382.607 1125.62 397.142C1143.39 403.279 1169.23 405.217 1189.9 402.956L1178.59 441.716C1127.56 440.101 1085.89 427.827 1058.76 404.571Z" fill="black"></path>
<path d="M1295.99 245.978C1304.06 245.978 1308.58 250.824 1308.58 258.898V367.55C1325.85 388.241 1348.26 396.496 1378.67 396.496H1526.93L1519.82 435.256H1377.06C1345.01 435.256 1315.62 424.659 1294.89 402.369C1278 421.275 1261.73 432.017 1239.46 442.039L1233 400.049C1246.68 394.964 1257.69 389.593 1269.5 381.249V284.415H1233.65V245.978H1295.99ZM1507.55 172.368C1500.43 179.071 1492.4 185.876 1483.45 192.782C1474.7 199.689 1465.55 206.189 1455.99 212.283C1455.08 212.84 1454.18 213.391 1453.28 213.936C1460.01 217.146 1465.87 220.15 1470.85 222.947H1508.46V349.397C1508.46 356.913 1507.55 362.804 1505.72 367.069C1504.09 371.132 1500.84 374.383 1495.96 376.82C1491.28 379.258 1485.48 380.781 1478.56 381.391C1471.85 381.797 1463.92 382 1454.76 382C1453.95 377.531 1452.63 372.655 1450.8 367.374C1449.17 361.89 1447.44 357.116 1445.61 353.054C1450.29 353.257 1454.97 353.358 1459.65 353.358H1469.11C1470.73 353.358 1471.85 353.054 1472.46 352.444C1473.27 351.632 1473.68 350.413 1473.68 348.788V335.076H1437.37V379.562H1404.73V335.076H1369.64V380.781H1335.46V222.947H1402.81C1399.64 221.525 1396.41 220.104 1393.13 218.682C1382.35 213.806 1372.28 209.541 1362.92 205.885L1386.42 186.384C1395.37 189.431 1405.23 193.188 1416.01 197.657C1418.32 198.571 1420.61 199.494 1422.89 200.427C1426.19 198.516 1429.49 196.476 1432.8 194.306C1437.62 191.093 1442.18 187.843 1446.48 184.556H1338.21V156.828H1478.87L1485.89 155L1507.55 172.368ZM1369.64 291.505V308.567H1404.73V291.505H1369.64ZM1437.37 308.567H1473.68V291.505H1437.37V308.567ZM1369.64 249.456V265.91H1404.73V249.456H1369.64ZM1437.37 265.91H1473.68V249.456H1437.37V265.91ZM1289.2 162.644L1315.69 222.076H1274.67L1247.54 162.644H1289.2Z" fill="black"></path>
<path d="M514.794 139H144V228.194H194.794L144 454H514.794V365.935H464L514.794 139Z" fill="#FF0F27"></path>
<path d="M373.824 282.892H305.833L334.979 244.428H227.395V194H441.182L373.824 282.892Z" fill="white"></path>
<path d="M285.357 311.077H353.349L324.203 349.54H431.787V399.968H218L285.357 311.077Z" fill="white"></path>
</svg>