<svg xmlns="http://www.w3.org/2000/svg" width="14.841" height="13.505" viewBox="0 0 14.841 13.505" fill="none">
  <path d="M 6.555 1.999 L 1.638 10.505 C 1.253 11.171 1.734 12.005 2.504 12.005 L 12.338 12.005 C 13.108 12.005 13.589 11.171 13.203 10.505 L 8.286 1.999 C 7.901 1.333 6.94 1.334 6.555 1.999 Z M 9.585 1.249 C 8.622 -0.416 6.219 -0.416 5.256 1.249 L 0.339 9.754 C -0.624 11.42 0.579 13.505 2.504 13.505 L 12.338 13.505 C 14.263 13.505 15.466 11.42 14.502 9.754 L 9.585 1.249 Z M 7.421 4.005 C 7.835 4.005 8.171 4.341 8.171 4.755 L 8.171 6.755 C 8.171 7.169 7.835 7.505 7.421 7.505 C 7.007 7.505 6.671 7.169 6.671 6.755 L 6.671 4.755 C 6.671 4.341 7.007 4.005 7.421 4.005 Z M 8.421 9.755 C 8.421 10.307 7.973 10.755 7.421 10.755 C 6.868 10.755 6.421 10.307 6.421 9.755 C 6.421 9.203 6.868 8.755 7.421 8.755 C 7.973 8.755 8.421 9.203 8.421 9.755 Z" fill="currentColor" fill-rule="evenodd"></path>
</svg>