<svg xmlns="http://www.w3.org/2000/svg" width="14" height="12" viewBox="0 0 14 12" fill="none">
  <path d="M 1.5 6 L 12.5 6 L 12.5 9 C 12.5 9.828 11.828 10.5 11 10.5 L 3 10.5 C 2.172 10.5 1.5 9.828 1.5 9 L 1.5 6 Z M 12.197 4.5 L 10.346 1.723 C 10.253 1.584 10.097 1.5 9.93 1.5 L 4.07 1.5 C 3.903 1.5 3.747 1.584 3.654 1.723 L 1.803 4.5 L 12.197 4.5 Z M 14 5.408 L 14 6 L 14 9 C 14 10.657 12.657 12 11 12 L 3 12 C 1.343 12 0 10.657 0 9 L 0 6 L 0 5.408 C 0 4.816 0.175 4.237 0.504 3.744 L 2.406 0.891 C 2.777 0.334 3.402 0 4.07 0 L 9.93 0 C 10.598 0 11.223 0.334 11.594 0.891 L 13.496 3.744 C 13.825 4.237 14 4.816 14 5.408 Z M 8.25 9 C 8.664 9 9 8.664 9 8.25 C 9 7.836 8.664 7.5 8.25 7.5 L 5.75 7.5 C 5.336 7.5 5 7.836 5 8.25 C 5 8.664 5.336 9 5.75 9 L 8.25 9 Z" fill="currentColor" fill-rule="evenodd"></path>
</svg>