<svg xmlns="http://www.w3.org/2000/svg" width="16" height="16" viewBox="0 0 16 16"><path d="M 4.75 0 C 5.164 0 5.5 0.336 5.5 0.75 L 5.5 10.939 L 8.22 8.22 C 8.513 7.927 8.987 7.927 9.28 8.22 C 9.573 8.513 9.573 8.987 9.28 9.28 L 5.28 13.28 C 4.987 13.573 4.513 13.573 4.22 13.28 L 0.22 9.28 C -0.073 8.987 -0.073 8.513 0.22 8.22 C 0.513 7.927 0.987 7.927 1.28 8.22 L 4 10.939 L 4 0.75 C 4 0.336 4.336 0 4.75 0 Z" transform="matrix(0 -1 1 0 1.25 12.75)" fill="currentColor" fill-rule="evenodd"></path></svg>