<svg xmlns="http://www.w3.org/2000/svg" width="16" height="16" viewBox="0 0 16 16"><path d="M 10.323 11.383 C 9.4 12.084 8.248 12.5 7 12.5 C 3.962 12.5 1.5 10.038 1.5 7 C 1.5 5.752 1.916 4.6 2.617 3.677 L 10.323 11.383 Z M 11.383 10.323 L 3.677 2.617 C 4.6 1.916 5.752 1.5 7 1.5 C 10.038 1.5 12.5 3.962 12.5 7 C 12.5 8.248 12.084 9.4 11.383 10.323 Z M 14 7 C 14 10.866 10.866 14 7 14 C 3.134 14 0 10.866 0 7 C 0 3.134 3.134 0 7 0 C 10.866 0 14 3.134 14 7 Z" transform="translate(1 1)" fill="currentColor" fill-rule="evenodd"></path></svg>