<svg xmlns="http://www.w3.org/2000/svg" width="13" height="14" viewBox="0 0 13 14" fill="none">
  <path d="M 3.165 6.822 L 3.784 3.726 C 4.043 2.432 5.18 1.5 6.5 1.5 C 7.82 1.5 8.957 2.432 9.216 3.726 L 9.835 6.822 C 10.02 7.746 10.474 8.595 11.14 9.262 L 11.334 9.455 C 11.44 9.562 11.5 9.706 11.5 9.856 C 11.5 10.12 11.318 10.349 11.061 10.408 L 10.24 10.598 C 7.779 11.165 5.221 11.165 2.76 10.598 L 1.939 10.408 C 1.682 10.349 1.5 10.12 1.5 9.856 C 1.5 9.706 1.56 9.562 1.666 9.455 L 1.86 9.262 C 2.526 8.595 2.98 7.746 3.165 6.822 Z M 1.694 6.528 L 2.314 3.432 C 2.713 1.436 4.465 0 6.5 0 C 8.535 0 10.287 1.436 10.686 3.432 L 11.306 6.528 C 11.432 7.162 11.744 7.744 12.201 8.201 L 12.395 8.395 C 12.782 8.782 13 9.308 13 9.856 C 13 10.818 12.336 11.653 11.398 11.87 L 10.577 12.059 C 9.876 12.221 9.168 12.34 8.456 12.418 C 8.264 13.322 7.461 14 6.5 14 C 5.539 14 4.736 13.322 4.544 12.418 C 3.832 12.34 3.124 12.221 2.423 12.059 L 1.602 11.87 C 0.664 11.653 0 10.818 0 9.856 C 0 9.308 0.218 8.782 0.605 8.395 L 0.799 8.201 C 1.256 7.744 1.568 7.162 1.694 6.528 Z" fill="currentColor" fill-rule="evenodd"></path>
</svg>