<svg xmlns="http://www.w3.org/2000/svg" width="14" height="15" viewBox="0 0 14 15" fill="none">
  <path d="M 6.835 5.5 L 7.596 3.473 L 8.335 1.5 L 4.5 1.5 C 4.207 1.5 3.944 1.678 3.836 1.95 L 1.513 7.757 C 1.504 7.778 1.5 7.8 1.5 7.823 C 1.5 7.921 1.579 8 1.677 8 L 4.5 8 L 6.642 8 L 5.91 10.013 L 4.828 12.988 C 4.737 13.237 4.922 13.5 5.187 13.5 C 5.292 13.5 5.393 13.457 5.465 13.38 L 12.421 5.989 C 12.472 5.935 12.5 5.864 12.5 5.79 C 12.5 5.63 12.37 5.5 12.21 5.5 L 9 5.5 L 6.835 5.5 Z M 8.393 1.346 L 8.393 1.346 L 8.393 1.346 Z M 9.563 2.5 L 9.798 1.873 C 10.138 0.967 9.468 0 8.5 0 L 4.5 0 C 3.594 0 2.779 0.552 2.443 1.393 L 0.12 7.2 C 0.041 7.398 0 7.61 0 7.823 C 0 8.749 0.751 9.5 1.677 9.5 L 2.904 9.5 L 4.5 9.5 L 3.955 11 L 3.418 12.475 C 2.972 13.702 3.881 15 5.187 15 C 5.706 15 6.202 14.786 6.557 14.408 L 13.513 7.017 C 13.826 6.685 14 6.246 14 5.79 C 14 4.801 13.199 4 12.21 4 L 10.602 4 L 9 4 L 9.563 2.5 Z" fill="currentColor" fill-rule="evenodd"></path>
</svg>