<svg xmlns="http://www.w3.org/2000/svg" width="12" height="13" viewBox="0 0 12 13" fill="none">
  <path d="M 6 8.024 L 6.976 8.861 L 9.964 11.422 C 10.023 11.472 10.098 11.5 10.175 11.5 C 10.355 11.5 10.5 11.355 10.5 11.175 L 10.5 3 C 10.5 2.172 9.828 1.5 9 1.5 L 3 1.5 C 2.172 1.5 1.5 2.172 1.5 3 L 1.5 11.175 C 1.5 11.355 1.645 11.5 1.825 11.5 C 1.902 11.5 1.977 11.472 2.036 11.422 L 5.024 8.861 L 6 8.024 Z M 12 3 C 12 1.343 10.657 0 9 0 L 3 0 C 1.343 0 0 1.343 0 3 L 0 11.175 C 0 12.183 0.817 13 1.825 13 C 2.261 13 2.682 12.844 3.013 12.561 L 6 10 L 8.987 12.561 C 9.318 12.844 9.739 13 10.175 13 C 11.183 13 12 12.183 12 11.175 L 12 3 Z" fill="currentColor" fill-rule="evenodd"></path>
</svg>