<svg xmlns="http://www.w3.org/2000/svg" width="14" height="14.463" viewBox="0 0 14 14.463" fill="none">
  <path d="M 12.5 9.653 L 12.5 4.707 L 10.5 5.421 L 10.5 7.482 C 10.5 7.896 10.164 8.232 9.75 8.232 C 9.336 8.232 9 7.896 9 7.482 L 9 5.957 L 6.75 6.76 L 6.75 12.848 L 11.527 11.057 C 12.112 10.838 12.5 10.278 12.5 9.653 Z M 10.246 3.919 L 11.846 3.347 C 11.791 3.309 11.732 3.275 11.671 3.244 L 8.499 1.658 C 8.126 1.472 7.692 1.449 7.302 1.596 L 6.361 1.948 L 10.085 3.811 C 10.144 3.84 10.198 3.877 10.246 3.919 Z M 4.444 2.667 L 8.322 4.606 L 6.049 5.418 L 2.244 3.515 C 2.316 3.473 2.393 3.436 2.473 3.406 L 4.444 2.667 Z M 5.25 6.695 L 1.5 4.82 L 1.5 9.878 C 1.5 10.446 1.821 10.965 2.329 11.219 L 5.25 12.68 L 5.25 6.695 Z M 0 4.811 C 0 4.375 0.094 3.955 0.267 3.574 C 0.28 3.514 0.3 3.454 0.329 3.396 C 0.365 3.324 0.412 3.26 0.466 3.205 C 0.808 2.665 1.321 2.236 1.947 2.002 L 6.775 0.191 C 7.556 -0.102 8.424 -0.056 9.17 0.317 L 12.342 1.902 C 13.358 2.411 14 3.449 14 4.586 L 14 9.653 C 14 10.903 13.224 12.023 12.053 12.462 L 7.225 14.272 C 6.444 14.565 5.576 14.52 4.83 14.147 L 1.658 12.561 C 0.642 12.053 0 11.014 0 9.878 L 0 4.811 Z" fill="currentColor" fill-rule="evenodd"></path>
</svg>