<svg xmlns="http://www.w3.org/2000/svg" width="15" height="14.500" viewBox="0 0 15 14.500" fill="none">
  <path d="M 6.75 1.5 L 6 1.5 C 5.448 1.5 5 1.948 5 2.5 L 5 5.5 C 5 6.052 5.448 6.5 6 6.5 L 9 6.5 C 9.552 6.5 10 6.052 10 5.5 L 10 2.5 C 10 1.948 9.552 1.5 9 1.5 L 8.25 1.5 L 8.25 3.25 C 8.25 3.664 7.914 4 7.5 4 C 7.086 4 6.75 3.664 6.75 3.25 L 6.75 1.5 Z M 6 0 C 4.619 0 3.5 1.119 3.5 2.5 L 3.5 5.5 C 3.5 5.856 3.574 6.194 3.708 6.5 L 2.5 6.5 C 1.119 6.5 0 7.619 0 9 L 0 12 C 0 13.381 1.119 14.5 2.5 14.5 L 5.5 14.5 L 5.75 14.5 L 9.25 14.5 L 9.5 14.5 L 12.5 14.5 C 13.881 14.5 15 13.381 15 12 L 15 9 C 15 7.619 13.881 6.5 12.5 6.5 L 11.292 6.5 C 11.426 6.194 11.5 5.856 11.5 5.5 L 11.5 2.5 C 11.5 1.119 10.381 0 9 0 L 6 0 Z M 6.75 9 C 6.75 8.448 6.302 8 5.75 8 L 4.75 8 L 4.75 9.75 C 4.75 10.164 4.414 10.5 4 10.5 C 3.586 10.5 3.25 10.164 3.25 9.75 L 3.25 8 L 2.5 8 C 1.948 8 1.5 8.448 1.5 9 L 1.5 12 C 1.5 12.552 1.948 13 2.5 13 L 5.75 13 C 6.302 13 6.75 12.552 6.75 12 L 6.75 9 Z M 8.25 12 C 8.25 12.552 8.698 13 9.25 13 L 12.5 13 C 13.052 13 13.5 12.552 13.5 12 L 13.5 9 C 13.5 8.448 13.052 8 12.5 8 L 11.75 8 L 11.75 9.75 C 11.75 10.164 11.414 10.5 11 10.5 C 10.586 10.5 10.25 10.164 10.25 9.75 L 10.25 8 L 9.25 8 C 8.698 8 8.25 8.448 8.25 9 L 8.25 12 Z" fill="currentColor" fill-rule="evenodd"></path>
</svg>