<svg xmlns="http://www.w3.org/2000/svg" width="14" height="13.500" viewBox="0 0 14 13.500" fill="none">
  <path d="M 8.5 4.5 L 8.5 7.303 L 10.832 5.748 L 12.5 4.636 L 12.5 11.5 C 12.5 11.776 12.276 12 12 12 L 2 12 C 1.724 12 1.5 11.776 1.5 11.5 L 1.5 2 C 1.5 1.724 1.724 1.5 2 1.5 L 3.5 1.5 C 3.776 1.5 4 1.724 4 2 L 4 4.5 L 4 7.446 L 6.382 5.713 L 8.5 4.173 L 8.5 4.5 Z M 5.5 2 L 5.5 2.645 L 5.5 4.5 L 7 3.409 L 7.903 2.753 C 8.128 2.588 8.4 2.5 8.679 2.5 C 9.065 2.5 9.412 2.665 9.653 2.928 C 9.869 3.163 10 3.477 10 3.821 L 10 4.5 L 11.019 3.821 L 11.483 3.511 L 11.912 3.226 C 12.132 3.078 12.392 3 12.657 3 C 13.399 3 14 3.601 14 4.343 L 14 11.5 C 14 12.605 13.105 13.5 12 13.5 L 2 13.5 C 0.895 13.5 0 12.605 0 11.5 L 0 2 C 0 0.895 0.895 0 2 0 L 3.5 0 C 4.605 0 5.5 0.895 5.5 2 Z M 3.75 9 C 3.336 9 3 9.336 3 9.75 C 3 10.164 3.336 10.5 3.75 10.5 L 10.25 10.5 C 10.664 10.5 11 10.164 11 9.75 C 11 9.336 10.664 9 10.25 9 L 3.75 9 Z" fill="currentColor" fill-rule="evenodd"></path>
</svg>