<svg xmlns="http://www.w3.org/2000/svg" width="13" height="13.502" viewBox="0 0 13 13.502" fill="none">
  <path d="M 3.75 4.499 C 3.336 4.499 3 4.163 3 3.749 L 3 3.002 C 2.172 3.002 1.5 3.674 1.5 4.502 L 1.5 5.502 L 11.5 5.502 L 11.5 4.502 C 11.5 3.674 10.828 3.002 10 3.002 L 10 3.752 C 10 4.167 9.664 4.502 9.25 4.502 C 8.836 4.502 8.5 4.167 8.5 3.752 L 8.5 3.002 L 4.5 3.002 L 4.5 3.749 C 4.5 4.163 4.164 4.499 3.75 4.499 Z M 8.5 1.502 L 4.5 1.502 L 4.5 0.75 C 4.5 0.336 4.164 0 3.75 0 C 3.336 0 3 0.336 3 0.75 L 3 1.502 C 1.343 1.502 0 2.846 0 4.502 L 0 10.502 C 0 12.159 1.343 13.502 3 13.502 L 10 13.502 C 11.657 13.502 13 12.159 13 10.502 L 13 4.502 C 13 2.846 11.657 1.502 10 1.502 L 10 0.752 C 10 0.338 9.664 0.002 9.25 0.002 C 8.836 0.002 8.5 0.338 8.5 0.752 L 8.5 1.502 Z M 1.5 7.002 L 1.5 10.502 C 1.5 11.331 2.172 12.002 3 12.002 L 10 12.002 C 10.828 12.002 11.5 11.331 11.5 10.502 L 11.5 7.002 L 1.5 7.002 Z" fill="currentColor" fill-rule="evenodd"></path>
</svg>