<svg xmlns="http://www.w3.org/2000/svg" width="14" height="12.500" viewBox="0 0 14 12.500" fill="none">
  <path d="M 3.273 3.5 L 4.323 3.5 L 4.682 2.513 L 4.931 1.829 C 5.003 1.632 5.191 1.5 5.401 1.5 L 8.599 1.5 C 8.809 1.5 8.997 1.632 9.069 1.829 L 9.318 2.513 L 9.677 3.5 L 10.727 3.5 L 11 3.5 C 11.828 3.5 12.5 4.172 12.5 5 L 12.5 9.5 C 12.5 10.328 11.828 11 11 11 L 3 11 C 2.172 11 1.5 10.328 1.5 9.5 L 1.5 5 C 1.5 4.172 2.172 3.5 3 3.5 L 3.273 3.5 Z M 5.401 0 C 4.56 0 3.809 0.526 3.521 1.317 L 3.273 2 L 3 2 C 1.343 2 0 3.343 0 5 L 0 9.5 C 0 11.157 1.343 12.5 3 12.5 L 11 12.5 C 12.657 12.5 14 11.157 14 9.5 L 14 5 C 14 3.343 12.657 2 11 2 L 10.727 2 L 10.479 1.317 C 10.191 0.526 9.44 0 8.599 0 L 5.401 0 Z M 8.5 7 C 8.5 7.828 7.828 8.5 7 8.5 C 6.172 8.5 5.5 7.828 5.5 7 C 5.5 6.172 6.172 5.5 7 5.5 C 7.828 5.5 8.5 6.172 8.5 7 Z M 10 7 C 10 8.657 8.657 10 7 10 C 5.343 10 4 8.657 4 7 C 4 5.343 5.343 4 7 4 C 8.657 4 10 5.343 10 7 Z" fill="currentColor" fill-rule="evenodd"></path>
</svg>