<svg xmlns="http://www.w3.org/2000/svg" width="15.000" height="13" viewBox="0 0 15.000 13" fill="none">
  <path d="M 14.826 0.27 C 15.091 0.588 15.048 1.061 14.73 1.326 L 11.056 4.388 C 10.347 4.979 9.389 5.175 8.505 4.91 L 5.637 4.049 C 5.211 3.921 4.748 4.03 4.423 4.335 L 1.263 7.297 C 0.961 7.58 0.486 7.565 0.203 7.263 C -0.08 6.961 -0.065 6.486 0.237 6.203 L 3.397 3.24 C 4.112 2.57 5.13 2.331 6.068 2.612 L 8.936 3.473 C 9.338 3.593 9.773 3.504 10.096 3.236 L 13.77 0.174 C 14.088 -0.091 14.561 -0.048 14.826 0.27 Z M 14.939 6.455 C 15.103 6.835 14.926 7.276 14.546 7.439 L 10.148 9.324 C 9.405 9.643 8.559 9.618 7.835 9.256 L 5.686 8.182 C 5.291 7.984 4.82 8.01 4.448 8.25 L 1.158 10.38 C 0.81 10.605 0.345 10.505 0.12 10.157 C -0.105 9.81 -0.005 9.345 0.343 9.12 L 3.634 6.991 C 4.451 6.462 5.487 6.405 6.357 6.84 L 8.506 7.914 C 8.835 8.079 9.219 8.09 9.557 7.945 L 13.955 6.061 C 14.335 5.897 14.776 6.074 14.939 6.455 Z M 0.75 11.5 C 0.336 11.5 0 11.836 0 12.25 C 0 12.664 0.336 13 0.75 13 L 14.25 13 C 14.664 13 15 12.664 15 12.25 C 15 11.836 14.664 11.5 14.25 11.5 L 0.75 11.5 Z" fill="currentColor" fill-rule="evenodd"></path>
</svg>