<svg xmlns="http://www.w3.org/2000/svg" width="16" height="16" viewBox="0 0 16 16"><path d="M 12.449 7.75 C 12.083 10.433 9.783 12.5 7 12.5 C 3.962 12.5 1.5 10.038 1.5 7 C 1.5 4.217 3.567 1.917 6.25 1.551 L 6.25 7 C 6.25 7.414 6.586 7.75 7 7.75 L 12.449 7.75 Z M 12.449 6.25 L 7.75 6.25 L 7.75 1.551 C 10.188 1.883 12.117 3.812 12.449 6.25 Z M 14 7 C 14 10.866 10.866 14 7 14 C 3.134 14 0 10.866 0 7 C 0 3.134 3.134 0 7 0 C 10.866 0 14 3.134 14 7 Z" transform="translate(1 1)" fill="currentColor" fill-rule="evenodd"></path></svg>