<svg xmlns="http://www.w3.org/2000/svg" width="15" height="12" viewBox="0 0 15 12" fill="none">
  <path d="M 11 1.5 L 13 1.5 C 13.276 1.5 13.5 1.724 13.5 2 L 13.5 10 C 13.5 10.276 13.276 10.5 13 10.5 L 12.5 10.5 L 11 10.5 C 10.724 10.5 10.5 10.276 10.5 10 L 10.5 5 L 10.5 2 C 10.5 1.724 10.724 1.5 11 1.5 Z M 8.5 10.5 C 8.776 10.5 9 10.276 9 10 L 9 5 C 9 4.724 8.776 4.5 8.5 4.5 L 6.5 4.5 C 6.224 4.5 6 4.724 6 5 L 6 8 L 6 10 C 6 10.276 6.224 10.5 6.5 10.5 L 8.5 10.5 Z M 4 10.5 C 4.276 10.5 4.5 10.276 4.5 10 L 4.5 8 C 4.5 7.724 4.276 7.5 4 7.5 L 2 7.5 C 1.724 7.5 1.5 7.724 1.5 8 L 1.5 10 C 1.5 10.276 1.724 10.5 2 10.5 L 3 10.5 L 4 10.5 Z M 3 12 L 2 12 C 0.895 12 0 11.105 0 10 L 0 8 C 0 6.895 0.895 6 2 6 L 4 6 C 4.173 6 4.34 6.022 4.5 6.063 L 4.5 5 C 4.5 3.895 5.395 3 6.5 3 L 8.5 3 C 8.673 3 8.84 3.022 9 3.063 L 9 2 C 9 0.895 9.895 0 11 0 L 13 0 C 14.105 0 15 0.895 15 2 L 15 10 C 15 11.105 14.105 12 13 12 L 12.5 12 L 11 12 L 8.5 12 L 6.5 12 L 4 12 L 3 12 Z" fill="currentColor" fill-rule="evenodd"></path>
</svg>