<svg xmlns="http://www.w3.org/2000/svg" width="15" height="12" viewBox="0 0 15 12" fill="none">
  <path d="M 5.5 2 L 5.5 3 C 5.5 3.276 5.276 3.5 5.001 3.5 L 5 3.5 L 2 3.5 C 1.724 3.5 1.5 3.276 1.5 3 L 1.5 2 C 1.5 1.724 1.724 1.5 2 1.5 L 5 1.5 C 5.276 1.5 5.5 1.724 5.5 2 Z M 1.5 5.5 C 1.5 5.5 1.5 5.5 1.5 5.5 L 1.5 6.5 C 1.5 6.5 1.5 6.5 1.5 6.501 C 1.5 6.776 1.724 7 2 7 L 9 7 L 9 7 C 9.276 7 9.5 6.776 9.5 6.5 L 9.5 5.5 C 9.5 5.224 9.276 5 9 5 L 5 5 L 2 5 C 1.724 5 1.5 5.224 1.5 5.5 Z M 1.5 8.999 C 1.5 9 1.5 9 1.5 9 L 1.5 9.503 C 1.5 9.504 1.5 9.504 1.5 9.504 L 1.5 10 C 1.5 10.276 1.724 10.5 2 10.5 L 13 10.5 C 13.276 10.5 13.5 10.276 13.5 10 L 13.5 9 C 13.5 8.724 13.276 8.5 13 8.5 L 9 8.5 L 2 8.5 C 1.724 8.5 1.5 8.724 1.5 8.999 Z M 0 9.503 L 0 9 L 0 6.5 L 0 5.5 L 0 3 L 0 2.503 L 0 2 C 0 0.895 0.895 0 2 0 L 5 0 C 6.105 0 7 0.895 7 2 L 7 3 C 7 3.173 6.978 3.34 6.937 3.5 L 9 3.5 C 10.105 3.5 11 4.395 11 5.5 L 11 6.5 C 11 6.673 10.978 6.84 10.937 7 L 13 7 C 14.105 7 15 7.895 15 9 L 15 10 C 15 11.105 14.105 12 13 12 L 2 12 C 0.895 12 0 11.105 0 10 L 0 9.503 Z" fill="currentColor" fill-rule="evenodd"></path>
</svg>