<svg xmlns="http://www.w3.org/2000/svg" width="14" height="14" viewBox="0 0 14 14" fill="none">
  <path d="M 12.5 7 C 12.5 10.038 10.038 12.5 7 12.5 C 3.962 12.5 1.5 10.038 1.5 7 C 1.5 3.962 3.962 1.5 7 1.5 C 10.038 1.5 12.5 3.962 12.5 7 Z M 14 7 C 14 10.866 10.866 14 7 14 C 3.134 14 0 10.866 0 7 C 0 3.134 3.134 0 7 0 C 10.866 0 14 3.134 14 7 Z M 10.1 5.45 C 10.349 5.119 10.281 4.649 9.95 4.4 C 9.619 4.151 9.149 4.219 8.9 4.55 L 6.419 7.858 L 5.03 6.47 C 4.737 6.177 4.263 6.177 3.97 6.47 C 3.677 6.763 3.677 7.237 3.97 7.53 L 5.97 9.53 C 6.123 9.684 6.336 9.764 6.553 9.748 C 6.77 9.733 6.97 9.624 7.1 9.45 L 10.1 5.45 Z" fill="currentColor" fill-rule="evenodd"></path>
</svg>