<svg xmlns="http://www.w3.org/2000/svg" width="16" height="16" viewBox="0 0 16 16"><path d="M 4 7.143 C 5.736 7.143 7.143 5.736 7.143 4 C 7.143 2.264 5.736 0.857 4 0.857 C 2.264 0.857 0.857 2.264 0.857 4 C 0.857 5.736 2.264 7.143 4 7.143 Z M 4 8 C 6.209 8 8 6.209 8 4 C 8 1.791 6.209 0 4 0 C 1.791 0 0 1.791 0 4 C 0 6.209 1.791 8 4 8 Z" transform="translate(4 4)" fill="currentColor" fill-rule="evenodd"></path><path d="M 4 8 C 6.209 8 8 6.209 8 4 C 8 1.791 6.209 0 4 0 C 1.791 0 0 1.791 0 4 C 0 6.209 1.791 8 4 8 Z" transform="translate(4 4)" fill="currentColor" fill-rule="evenodd"></path></svg>