<svg xmlns="http://www.w3.org/2000/svg" width="16" height="16" viewBox="0 0 16 16"><path d="M 8 1.5 C 4.41 1.5 1.5 4.41 1.5 8 C 1.5 11.59 4.41 14.5 8 14.5 C 11.59 14.5 14.5 11.59 14.5 8 C 14.5 4.41 11.59 1.5 8 1.5 Z M 8 0 C 12.418 0 16 3.582 16 8 C 16 12.418 12.418 16 8 16 C 3.582 16 0 12.418 0 8 C 0 3.582 3.582 0 8 0 Z M 8.75 4.75 L 8.75 7.25 L 11.25 7.25 C 11.664 7.25 12 7.586 12 8 C 12 8.414 11.664 8.75 11.25 8.75 L 8.75 8.75 L 8.75 11.25 C 8.75 11.664 8.414 12 8 12 C 7.586 12 7.25 11.664 7.25 11.25 L 7.25 8.75 L 4.75 8.75 C 4.336 8.75 4 8.414 4 8 C 4 7.586 4.336 7.25 4.75 7.25 L 7.25 7.25 L 7.25 4.75 C 7.25 4.336 7.586 4 8 4 C 8.414 4 8.75 4.336 8.75 4.75 Z" fill="currentColor" fill-rule="evenodd"></path></svg>