<svg xmlns="http://www.w3.org/2000/svg" width="16" height="16" viewBox="0 0 16 16"><path d="M 7 12.5 C 10.038 12.5 12.5 10.038 12.5 7 C 12.5 3.962 10.038 1.5 7 1.5 C 3.962 1.5 1.5 3.962 1.5 7 C 1.5 10.038 3.962 12.5 7 12.5 Z M 7 14 C 10.866 14 14 10.866 14 7 C 14 3.134 10.866 0 7 0 C 3.134 0 0 3.134 0 7 C 0 10.866 3.134 14 7 14 Z" transform="translate(1 1)" fill="currentColor" fill-rule="evenodd"></path><path d="M 7 14 C 10.866 14 14 10.866 14 7 C 14 3.134 10.866 0 7 0 C 3.134 0 0 3.134 0 7 C 0 10.866 3.134 14 7 14 Z" transform="translate(1 1)" fill="currentColor" fill-rule="evenodd"></path></svg>