<svg xmlns="http://www.w3.org/2000/svg" width="14" height="14" viewBox="0 0 14 14" fill="none">
  <path d="M 7 12.5 C 10.038 12.5 12.5 10.038 12.5 7 C 12.5 3.962 10.038 1.5 7 1.5 C 3.962 1.5 1.5 3.962 1.5 7 C 1.5 10.038 3.962 12.5 7 12.5 Z M 7 14 C 10.866 14 14 10.866 14 7 C 14 3.134 10.866 0 7 0 C 3.134 0 0 3.134 0 7 C 0 10.866 3.134 14 7 14 Z M 8 9.5 C 8 10.052 7.552 10.5 7 10.5 C 6.448 10.5 6 10.052 6 9.5 C 6 8.948 6.448 8.5 7 8.5 C 7.552 8.5 8 8.948 8 9.5 Z M 7.75 4 C 7.75 3.586 7.414 3.25 7 3.25 C 6.586 3.25 6.25 3.586 6.25 4 L 6.25 6.5 C 6.25 6.914 6.586 7.25 7 7.25 C 7.414 7.25 7.75 6.914 7.75 6.5 L 7.75 4 Z" fill="currentColor" fill-rule="evenodd"></path>
</svg>