<svg xmlns="http://www.w3.org/2000/svg" width="14" height="14" viewBox="0 0 14 14" fill="none">
  <path d="M 12.5 7 C 12.5 10.038 10.038 12.5 7 12.5 C 3.962 12.5 1.5 10.038 1.5 7 C 1.5 3.962 3.962 1.5 7 1.5 C 10.038 1.5 12.5 3.962 12.5 7 Z M 14 7 C 14 10.866 10.866 14 7 14 C 3.134 14 0 10.866 0 7 C 0 3.134 3.134 0 7 0 C 10.866 0 14 3.134 14 7 Z M 5.53 4.47 C 5.237 4.177 4.763 4.177 4.47 4.47 C 4.177 4.763 4.177 5.237 4.47 5.53 L 5.939 7 L 4.47 8.47 C 4.177 8.763 4.177 9.237 4.47 9.53 C 4.763 9.823 5.237 9.823 5.53 9.53 L 7 8.061 L 8.47 9.53 C 8.763 9.823 9.237 9.823 9.53 9.53 C 9.823 9.237 9.823 8.763 9.53 8.47 L 8.061 7 L 9.53 5.53 C 9.823 5.237 9.823 4.763 9.53 4.47 C 9.237 4.177 8.763 4.177 8.47 4.47 L 7 5.939 L 5.53 4.47 Z" fill="currentColor" fill-rule="evenodd"></path>
</svg>