<svg xmlns="http://www.w3.org/2000/svg" width="14" height="14" viewBox="0 0 14 14" fill="none">
  <path d="M 12.5 7 C 12.5 10.038 10.038 12.5 7 12.5 C 3.962 12.5 1.5 10.038 1.5 7 C 1.5 3.962 3.962 1.5 7 1.5 C 10.038 1.5 12.5 3.962 12.5 7 Z M 14 7 C 14 10.866 10.866 14 7 14 C 3.134 14 0 10.866 0 7 C 0 3.134 3.134 0 7 0 C 10.866 0 14 3.134 14 7 Z M 7.75 3.5 C 7.75 3.086 7.414 2.75 7 2.75 C 6.586 2.75 6.25 3.086 6.25 3.5 L 6.25 7 C 6.25 7.236 6.361 7.458 6.55 7.6 L 8.55 9.1 C 8.881 9.349 9.351 9.281 9.6 8.95 C 9.849 8.619 9.781 8.149 9.45 7.9 L 7.75 6.625 L 7.75 3.5 Z" fill="currentColor" fill-rule="evenodd"></path>
</svg>