<svg xmlns="http://www.w3.org/2000/svg" width="9.500" height="9.500" viewBox="0 0 9.500 9.500" fill="none">
  <path d="M 0.22 0.22 C 0.513 -0.073 0.987 -0.073 1.28 0.22 L 4.75 3.689 L 8.22 0.22 C 8.513 -0.073 8.987 -0.073 9.28 0.22 C 9.573 0.513 9.573 0.987 9.28 1.28 L 5.811 4.75 L 9.28 8.22 C 9.573 8.513 9.573 8.987 9.28 9.28 C 8.987 9.573 8.513 9.573 8.22 9.28 L 4.75 5.811 L 1.28 9.28 C 0.987 9.573 0.513 9.573 0.22 9.28 C -0.073 8.987 -0.073 8.513 0.22 8.22 L 3.689 4.75 L 0.22 1.28 C -0.073 0.987 -0.073 0.513 0.22 0.22 Z" fill="currentColor" fill-rule="evenodd"></path>
</svg>