<svg xmlns="http://www.w3.org/2000/svg" width="14" height="14" viewBox="0 0 14 14" fill="none">
  <path d="M 3.843 9.944 L 3.649 12.279 C 3.639 12.398 3.733 12.5 3.852 12.5 C 3.902 12.5 3.95 12.482 3.988 12.448 L 6.197 10.484 L 6.787 10.498 C 6.857 10.499 6.928 10.5 7 10.5 C 8.695 10.5 10.087 10.06 11.02 9.323 C 11.909 8.621 12.5 7.563 12.5 6 C 12.5 4.437 11.909 3.379 11.02 2.677 C 10.087 1.94 8.695 1.5 7 1.5 C 5.305 1.5 3.913 1.94 2.98 2.677 C 2.091 3.379 1.5 4.437 1.5 6 C 1.5 7.648 2.156 8.742 3.148 9.448 L 3.843 9.944 Z M 4.984 13.57 L 6.753 11.997 C 6.835 11.999 6.917 12 7 12 C 10.866 12 14 10 14 6 C 14 2 10.866 0 7 0 C 3.134 0 0 2 0 6 C 0 8.117 0.878 9.674 2.277 10.67 L 2.154 12.154 C 2.071 13.148 2.855 14 3.852 14 C 4.269 14 4.672 13.847 4.984 13.57 Z" fill="currentColor" fill-rule="evenodd"></path>
</svg>