<svg xmlns="http://www.w3.org/2000/svg" width="16" height="14" viewBox="0 0 16 14" fill="none">
  <path d="M 6 8.5 L 5.379 8.5 L 4.939 8.939 L 3.429 10.449 C 3.397 10.482 3.353 10.5 3.307 10.5 C 3.206 10.5 3.126 10.414 3.134 10.313 L 3.246 8.86 L 3.308 8.051 L 2.666 7.556 C 1.963 7.015 1.5 6.211 1.5 5 C 1.5 3.786 1.965 2.981 2.671 2.44 C 3.424 1.862 4.572 1.5 6 1.5 C 7.428 1.5 8.576 1.862 9.329 2.44 C 10.035 2.981 10.5 3.786 10.5 5 C 10.5 6.214 10.035 7.019 9.329 7.56 C 8.576 8.138 7.428 8.5 6 8.5 Z M 5.48 10.52 L 4.49 11.51 C 4.176 11.824 3.751 12 3.307 12 C 2.332 12 1.564 11.17 1.639 10.198 L 1.75 8.745 C 0.669 7.911 0 6.663 0 5 C 0 1.667 2.686 0 6 0 C 8.127 0 9.995 0.687 11.061 2.06 C 13.868 2.384 16 4.031 16 7 C 16 8.663 15.331 9.911 14.25 10.745 L 14.361 12.198 C 14.436 13.17 13.668 14 12.693 14 C 12.249 14 11.824 13.824 11.51 13.51 L 10 12 C 8.197 12 6.58 11.507 5.48 10.52 Z M 11.857 3.736 C 11.951 4.127 12 4.548 12 5 C 12 7.905 9.959 9.544 7.241 9.918 C 7.958 10.284 8.895 10.5 10 10.5 L 10.621 10.5 L 11.061 10.939 L 12.571 12.449 C 12.603 12.482 12.647 12.5 12.693 12.5 C 12.794 12.5 12.874 12.414 12.866 12.313 L 12.754 10.86 L 12.692 10.051 L 13.334 9.556 C 14.037 9.015 14.5 8.211 14.5 7 C 14.5 5.786 14.035 4.981 13.329 4.44 C 12.939 4.14 12.443 3.899 11.857 3.736 Z" fill="currentColor" fill-rule="evenodd"></path>
</svg>