<svg xmlns="http://www.w3.org/2000/svg" width="14" height="14" viewBox="0 0 14 14" fill="none">
  <path d="M 11 1.5 L 7 1.5 C 6.172 1.5 5.5 2.172 5.5 3 L 5.5 4 L 7 4 C 8.657 4 10 5.343 10 7 L 10 8.5 L 11 8.5 C 11.828 8.5 12.5 7.828 12.5 7 L 12.5 3 C 12.5 2.172 11.828 1.5 11 1.5 Z M 10 10 L 11 10 C 12.657 10 14 8.657 14 7 L 14 3 C 14 1.343 12.657 0 11 0 L 7 0 C 5.343 0 4 1.343 4 3 L 4 4 L 3 4 C 1.343 4 0 5.343 0 7 L 0 11 C 0 12.657 1.343 14 3 14 L 7 14 C 8.657 14 10 12.657 10 11 L 10 10 Z M 3 5.5 L 7 5.5 C 7.828 5.5 8.5 6.172 8.5 7 L 8.5 11 C 8.5 11.828 7.828 12.5 7 12.5 L 3 12.5 C 2.172 12.5 1.5 11.828 1.5 11 L 1.5 7 C 1.5 6.172 2.172 5.5 3 5.5 Z" fill="currentColor" fill-rule="evenodd"></path>
</svg>