<svg xmlns="http://www.w3.org/2000/svg" width="15" height="11" viewBox="0 0 15 11" fill="none">
  <path d="M 12 1.5 L 3 1.5 C 2.172 1.5 1.5 2.172 1.5 3 L 13.5 3 C 13.5 2.172 12.828 1.5 12 1.5 Z M 1.5 8 L 1.5 4.5 L 13.5 4.5 L 13.5 8 C 13.5 8.828 12.828 9.5 12 9.5 L 3 9.5 C 2.172 9.5 1.5 8.828 1.5 8 Z M 3 0 C 1.343 0 0 1.343 0 3 L 0 8 C 0 9.657 1.343 11 3 11 L 12 11 C 13.657 11 15 9.657 15 8 L 15 3 C 15 1.343 13.657 0 12 0 L 3 0 Z M 3.75 6.5 C 3.336 6.5 3 6.836 3 7.25 C 3 7.664 3.336 8 3.75 8 L 6.25 8 C 6.664 8 7 7.664 7 7.25 C 7 6.836 6.664 6.5 6.25 6.5 L 3.75 6.5 Z" fill="currentColor" fill-rule="evenodd"></path>
</svg>