<svg xmlns="http://www.w3.org/2000/svg" width="16" height="13.079" viewBox="0 0 16 13.079" fill="none">
  <path d="M 8.427 10.073 L 9.632 8.868 C 9.708 8.792 9.75 8.69 9.75 8.583 C 9.75 8.37 9.665 8.165 9.514 8.014 L 8.427 6.927 C 8.313 6.814 8.16 6.75 8 6.75 C 7.84 6.75 7.686 6.814 7.573 6.927 L 6.486 8.014 C 6.335 8.165 6.25 8.37 6.25 8.583 C 6.25 8.69 6.292 8.792 6.368 8.868 L 7.573 10.073 C 7.686 10.186 7.84 10.25 8 10.25 C 8.16 10.25 8.313 10.186 8.427 10.073 Z" fill="currentColor" fill-rule="evenodd"></path>
  <path d="M 16 4.796 L 16 4.768 C 16 3.791 15.209 3 14.232 3 C 13.763 3 13.314 3.186 12.982 3.518 L 12.222 4.278 L 12.198 4.302 L 11.824 4.676 L 11.409 5.091 C 11.227 5.273 10.916 5.191 10.848 4.942 L 10.694 4.376 L 10.554 3.865 L 10.545 3.833 L 9.895 1.447 C 9.662 0.593 8.886 0 8 0 C 7.114 0 6.338 0.593 6.105 1.447 L 5.455 3.833 L 5.446 3.865 L 5.306 4.376 L 5.152 4.942 C 5.084 5.191 4.773 5.273 4.591 5.091 L 4.176 4.676 L 3.802 4.302 L 3.778 4.278 L 3.018 3.518 C 2.686 3.186 2.237 3 1.768 3 C 0.791 3 0 3.791 0 4.768 L 0 4.796 C 0 4.931 0.015 5.067 0.046 5.199 L 1.345 10.83 C 1.443 11.253 1.73 11.606 2.124 11.788 C 5.852 13.509 10.148 13.509 13.876 11.788 C 14.27 11.606 14.557 11.253 14.655 10.83 L 15.954 5.199 C 15.985 5.067 16 4.931 16 4.796 Z M 3.531 6.152 C 4.527 7.149 6.228 6.697 6.599 5.337 L 7.552 1.842 C 7.608 1.64 7.791 1.5 8 1.5 C 8.209 1.5 8.392 1.64 8.448 1.842 L 9.401 5.337 C 9.772 6.697 11.473 7.148 12.469 6.152 L 14.043 4.578 C 14.093 4.528 14.161 4.5 14.232 4.5 C 14.38 4.5 14.5 4.62 14.5 4.768 L 14.5 4.796 C 14.5 4.818 14.497 4.84 14.492 4.862 L 13.204 10.446 C 9.899 11.956 6.101 11.956 2.796 10.446 L 1.508 4.862 C 1.503 4.84 1.5 4.818 1.5 4.796 L 1.5 4.768 C 1.5 4.62 1.62 4.5 1.768 4.5 C 1.839 4.5 1.907 4.528 1.957 4.578 L 3.531 6.152 Z" fill="currentColor" fill-rule="evenodd"></path>
</svg>