<svg xmlns="http://www.w3.org/2000/svg" width="13" height="14.500" viewBox="0 0 13 14.500" fill="none">
  <path d="M 7.5 1.5 L 5.5 1.5 C 5.224 1.5 5 1.724 5 2 L 5 2.5 L 8 2.5 L 8 2 C 8 1.724 7.776 1.5 7.5 1.5 Z M 9.5 2.5 L 9.5 2 C 9.5 0.895 8.605 0 7.5 0 L 5.5 0 C 4.395 0 3.5 0.895 3.5 2 L 3.5 2.5 L 2.501 2.5 L 1 2.5 L 0.75 2.5 C 0.336 2.5 0 2.836 0 3.25 C 0 3.664 0.336 4 0.75 4 L 1.062 4 L 1.38 11.625 C 1.447 13.232 2.769 14.5 4.377 14.5 L 8.622 14.5 C 10.231 14.5 11.553 13.232 11.62 11.625 L 11.937 4 L 12.25 4 C 12.664 4 13 3.664 13 3.25 C 13 2.836 12.664 2.5 12.25 2.5 L 12 2.5 L 10.499 2.5 L 9.5 2.5 Z M 10.436 4 L 9.5 4 L 8 4 L 5 4 L 3.5 4 L 2.564 4 L 2.879 11.562 C 2.912 12.366 3.573 13 4.377 13 L 8.622 13 C 9.426 13 10.087 12.366 10.121 11.562 L 10.436 4 Z M 4.25 6 L 4.25 11 C 4.25 11.414 4.586 11.75 5 11.75 C 5.414 11.75 5.75 11.414 5.75 11 L 5.75 6 C 5.75 5.586 5.414 5.25 5 5.25 C 4.586 5.25 4.25 5.586 4.25 6 Z M 8 5.25 C 8.414 5.25 8.75 5.586 8.75 6 L 8.75 11 C 8.75 11.414 8.414 11.75 8 11.75 C 7.586 11.75 7.25 11.414 7.25 11 L 7.25 6 C 7.25 5.586 7.586 5.25 8 5.25 Z" fill="currentColor" fill-rule="evenodd"></path>
</svg>