<svg xmlns="http://www.w3.org/2000/svg" width="12" height="14" viewBox="0 0 12 14" fill="none">
  <path d="M 10.5 11 C 10.5 11.828 9.828 12.5 9 12.5 L 3 12.5 C 2.172 12.5 1.5 11.828 1.5 11 L 1.5 3 C 1.5 2.172 2.172 1.5 3 1.5 L 5.757 1.5 C 6.155 1.5 6.537 1.658 6.818 1.939 L 10.061 5.182 C 10.342 5.463 10.5 5.845 10.5 6.243 L 10.5 11 Z M 11.121 4.121 C 11.684 4.684 12 5.447 12 6.243 L 12 11 C 12 12.657 10.657 14 9 14 L 3 14 C 1.343 14 0 12.657 0 11 L 0 3 C 0 1.343 1.343 0 3 0 L 5.757 0 C 6.553 0 7.316 0.316 7.879 0.879 L 11.121 4.121 Z M 3.47 8.78 C 3.177 8.487 3.177 8.013 3.47 7.72 C 3.763 7.427 4.237 7.427 4.53 7.72 L 5.25 8.439 L 5.25 6.25 C 5.25 5.836 5.586 5.5 6 5.5 C 6.414 5.5 6.75 5.836 6.75 6.25 L 6.75 8.439 L 7.47 7.72 C 7.763 7.427 8.237 7.427 8.53 7.72 C 8.823 8.013 8.823 8.487 8.53 8.78 L 6.53 10.78 C 6.237 11.073 5.763 11.073 5.47 10.78 L 3.47 8.78 Z" fill="currentColor" fill-rule="evenodd"></path>
</svg>