<svg xmlns="http://www.w3.org/2000/svg" width="13.226" height="13.226" viewBox="0 0 13.226 13.226" fill="none">
  <path d="M 9.649 0 C 11.624 0 13.226 1.601 13.226 3.577 C 13.226 3.848 13.118 4.108 12.926 4.299 L 12.398 4.828 L 10.427 6.799 C 10.427 6.799 10.427 6.799 10.426 6.799 L 5.368 11.858 C 4.949 12.277 4.416 12.562 3.835 12.678 L 1.197 13.206 C 0.497 13.346 -0.12 12.729 0.02 12.029 L 0.548 9.391 C 0.664 8.81 0.949 8.277 1.368 7.858 L 6.426 2.799 C 6.427 2.799 6.427 2.799 6.427 2.799 L 8.926 0.299 C 9.118 0.108 9.378 0 9.649 0 Z M 7.339 4.009 L 2.429 8.918 C 2.219 9.128 2.077 9.394 2.019 9.685 L 1.638 11.588 L 3.541 11.207 C 3.795 11.156 4.031 11.041 4.226 10.872 C 4.254 10.848 4.281 10.823 4.307 10.797 L 9.217 5.887 C 9.127 4.891 8.334 4.099 7.339 4.009 Z M 10.437 4.667 C 10.076 3.825 9.401 3.15 8.559 2.788 L 9.839 1.509 C 10.834 1.599 11.627 2.391 11.717 3.387 L 10.437 4.667 Z" fill="currentColor" fill-rule="evenodd"></path>
</svg>