<svg xmlns="http://www.w3.org/2000/svg" width="13" height="13" viewBox="0 0 13 13" fill="none">
  <path d="M 8.5 0 C 8.086 0 7.75 0.336 7.75 0.75 C 7.75 1.164 8.086 1.5 8.5 1.5 L 10.439 1.5 L 5.47 6.47 C 5.177 6.763 5.177 7.237 5.47 7.53 C 5.763 7.823 6.237 7.823 6.53 7.53 L 11.5 2.561 L 11.5 4.5 C 11.5 4.914 11.836 5.25 12.25 5.25 C 12.664 5.25 13 4.914 13 4.5 L 13 0.75 C 13 0.336 12.664 0 12.25 0 L 8.5 0 Z M 6 1.75 C 6 1.336 5.664 1 5.25 1 L 3 1 C 1.343 1 0 2.343 0 4 L 0 10 C 0 11.657 1.343 13 3 13 L 9 13 C 10.657 13 12 11.657 12 10 L 12 7.75 C 12 7.336 11.664 7 11.25 7 C 10.836 7 10.5 7.336 10.5 7.75 L 10.5 10 C 10.5 10.828 9.828 11.5 9 11.5 L 3 11.5 C 2.172 11.5 1.5 10.828 1.5 10 L 1.5 4 C 1.5 3.172 2.172 2.5 3 2.5 L 5.25 2.5 C 5.664 2.5 6 2.164 6 1.75 Z" fill="currentColor" fill-rule="evenodd"></path>
</svg>