<svg xmlns="http://www.w3.org/2000/svg" width="15.749" height="12.500" viewBox="0 0 15.749 12.500" fill="none">
  <path d="M 2.905 0.22 C 2.612 -0.073 2.137 -0.073 1.844 0.22 C 1.552 0.513 1.552 0.987 1.844 1.28 L 2.674 2.11 C 1.693 2.913 0.901 3.942 0.374 5.126 L 0.114 5.711 C -0.038 6.054 -0.038 6.446 0.114 6.79 L 0.374 7.375 C 1.329 9.521 3.157 11.156 5.396 11.866 C 7.009 12.376 8.74 12.376 10.353 11.866 C 10.861 11.705 11.348 11.496 11.809 11.245 L 12.844 12.28 C 13.137 12.573 13.612 12.573 13.905 12.28 C 14.198 11.987 14.198 11.513 13.905 11.22 L 2.905 0.22 Z M 10.692 10.128 L 9.399 8.835 C 8.952 9.099 8.431 9.25 7.875 9.25 C 6.218 9.25 4.875 7.907 4.875 6.25 C 4.875 5.694 5.026 5.173 5.29 4.726 L 3.741 3.177 C 2.886 3.846 2.196 4.721 1.745 5.736 L 1.516 6.25 L 1.745 6.765 C 2.525 8.52 4.019 9.856 5.849 10.436 C 7.167 10.853 8.582 10.853 9.9 10.436 C 10.172 10.35 10.437 10.247 10.692 10.128 Z M 6.426 5.861 C 6.392 5.985 6.375 6.116 6.375 6.25 C 6.375 7.079 7.046 7.75 7.875 7.75 C 8.009 7.75 8.139 7.732 8.263 7.699 L 6.426 5.861 Z M 8.084 3.257 L 10.868 6.041 C 10.765 4.551 9.574 3.36 8.084 3.257 Z M 14.004 6.765 C 13.763 7.307 13.454 7.809 13.088 8.262 L 14.154 9.327 C 14.646 8.743 15.059 8.087 15.375 7.375 L 15.635 6.79 C 15.788 6.446 15.788 6.054 15.635 5.711 L 15.375 5.126 C 14.421 2.979 12.592 1.344 10.353 0.635 C 8.757 0.13 7.045 0.124 5.446 0.619 L 6.685 1.858 C 7.753 1.666 8.857 1.735 9.9 2.065 C 11.73 2.645 13.225 3.981 14.004 5.736 L 14.233 6.25 L 14.004 6.765 Z" fill="currentColor" fill-rule="evenodd"></path>
</svg>