<svg xmlns="http://www.w3.org/2000/svg" width="15.749" height="11.997" viewBox="0 0 15.749 11.997" fill="none">
  <path d="M 1.745 6.513 L 1.516 5.998 L 1.745 5.484 C 2.525 3.729 4.019 2.393 5.85 1.813 C 7.167 1.396 8.582 1.396 9.9 1.813 C 11.73 2.393 13.225 3.729 14.004 5.484 L 14.233 5.998 L 14.004 6.513 C 13.225 8.268 11.73 9.604 9.9 10.184 C 8.582 10.601 7.167 10.601 5.849 10.184 C 4.019 9.604 2.525 8.268 1.745 6.513 Z M 0.374 4.874 L 0.114 5.459 C -0.038 5.802 -0.038 6.194 0.114 6.538 L 0.374 7.123 C 1.329 9.269 3.157 10.904 5.396 11.614 C 7.009 12.125 8.74 12.125 10.353 11.614 C 12.593 10.904 14.421 9.269 15.375 7.123 L 15.635 6.538 C 15.788 6.194 15.788 5.802 15.635 5.459 L 15.375 4.874 C 14.421 2.727 12.592 1.092 10.353 0.383 C 8.74 -0.128 7.009 -0.128 5.397 0.383 C 3.157 1.092 1.328 2.727 0.374 4.874 Z M 9.375 5.998 C 9.375 6.827 8.703 7.498 7.875 7.498 C 7.046 7.498 6.375 6.827 6.375 5.998 C 6.375 5.17 7.046 4.498 7.875 4.498 C 8.703 4.498 9.375 5.17 9.375 5.998 Z M 10.875 5.998 C 10.875 7.655 9.532 8.998 7.875 8.998 C 6.218 8.998 4.875 7.655 4.875 5.998 C 4.875 4.341 6.218 2.998 7.875 2.998 C 9.532 2.998 10.875 4.341 10.875 5.998 Z" fill="currentColor" fill-rule="evenodd"></path>
</svg>