<svg xmlns="http://www.w3.org/2000/svg" width="12" height="14" viewBox="0 0 12 14" fill="none">
  <path d="M 9 12.5 L 3 12.5 C 2.172 12.5 1.5 11.828 1.5 11 L 1.5 3 C 1.5 2.172 2.172 1.5 3 1.5 L 5 1.5 L 5 4 C 5 5.657 6.343 7 8 7 L 10.5 7 L 10.5 11 C 10.5 11.828 9.828 12.5 9 12.5 Z M 10.303 5.5 C 10.238 5.385 10.156 5.278 10.061 5.182 L 6.818 1.939 C 6.722 1.844 6.615 1.762 6.5 1.697 L 6.5 4 C 6.5 4.828 7.172 5.5 8 5.5 L 10.303 5.5 Z M 11.121 4.121 C 11.684 4.684 12 5.447 12 6.243 L 12 11 C 12 12.657 10.657 14 9 14 L 3 14 C 1.343 14 0 12.657 0 11 L 0 3 C 0 1.343 1.343 0 3 0 L 5.757 0 C 6.553 0 7.316 0.316 7.879 0.879 L 11.121 4.121 Z" fill="currentColor" fill-rule="evenodd"></path>
</svg>