<svg xmlns="http://www.w3.org/2000/svg" width="12" height="14.500" viewBox="0 0 12 14.500" fill="none">
  <path d="M 10.5 3 C 10.5 3.174 10.429 3.513 9.615 3.888 C 8.799 4.263 7.538 4.5 6 4.5 C 4.462 4.5 3.201 4.263 2.385 3.888 C 1.571 3.513 1.5 3.174 1.5 3 C 1.5 2.826 1.571 2.487 2.385 2.112 C 3.201 1.737 4.462 1.5 6 1.5 C 7.538 1.5 8.799 1.737 9.615 2.112 C 10.429 2.487 10.5 2.826 10.5 3 Z M 9.052 5.661 C 8.158 5.887 7.115 6 6 6 C 4.885 6 3.842 5.887 2.948 5.661 L 4.928 8.565 C 5.138 8.873 5.25 9.237 5.25 9.609 L 5.25 12.979 C 5.31 12.991 5.391 13 5.5 13 C 5.922 13 6.249 12.859 6.45 12.684 C 6.635 12.522 6.75 12.303 6.75 12 L 6.75 9.609 C 6.75 9.237 6.862 8.873 7.072 8.565 L 9.052 5.661 Z M 6 0 C 9.314 0 12 1 12 3 C 12 3.652 11.804 4.288 11.437 4.826 L 8.311 9.41 C 8.271 9.469 8.25 9.538 8.25 9.609 L 8.25 12 C 8.25 13.5 7 14.5 5.5 14.5 C 4 14.5 3.75 13.5 3.75 13.5 L 3.75 9.609 C 3.75 9.538 3.729 9.469 3.689 9.41 L 0.563 4.826 C 0.196 4.288 0 3.652 0 3 C 0 1 2.686 0 6 0 Z M 5.12 12.936 C 5.11 12.931 5.106 12.927 5.107 12.927 C 5.107 12.926 5.112 12.929 5.12 12.936 Z" fill="currentColor" fill-rule="evenodd"></path>
</svg>