<svg xmlns="http://www.w3.org/2000/svg" width="13.500" height="14.985" viewBox="0 0 13.500 14.985" fill="none">
  <path d="M 5.202 6.864 L 6.331 4.691 C 6.773 3.84 7.474 2.658 8.204 1.596 C 9.168 2.641 10.11 3.896 10.816 5.218 C 11.564 6.62 12 8.007 12 9.25 C 12 10.677 11.096 12.08 9.847 12.863 C 9.904 12.598 9.938 12.31 9.938 12 C 9.938 10.745 9.263 9.664 8.794 9.038 C 8.537 8.695 8.283 8.413 8.093 8.217 C 7.998 8.118 7.917 8.038 7.857 7.981 C 7.827 7.953 7.802 7.93 7.784 7.913 L 7.76 7.891 L 7.752 7.884 L 7.749 7.881 L 7.748 7.88 L 7.747 7.879 C 7.747 7.879 7.747 7.879 6.75 9 C 6.75 9 7.206 9.405 7.644 10.005 C 7.674 10.047 7.704 10.089 7.734 10.132 C 8.104 10.667 8.438 11.334 8.438 12 C 8.438 12.77 8.125 13.276 7.82 13.587 C 7.661 13.749 7.541 13.966 7.506 14.188 C 7.492 14.276 7.491 14.365 7.506 14.451 C 7.518 14.514 7.537 14.575 7.567 14.633 C 7.679 14.858 7.909 15.004 8.16 14.983 C 10.996 14.748 13.5 12.113 13.5 9.25 C 13.5 6.101 11.323 2.712 9.143 0.405 C 8.895 0.142 8.547 0 8.185 0 C 7.754 0 7.347 0.203 7.1 0.556 C 6.648 1.202 6.203 1.899 5.811 2.555 C 5.499 3.078 5.221 3.575 5 4 L 4.045 2.663 C 4.04 2.655 4.034 2.648 4.029 2.641 C 3.843 2.395 3.552 2.25 3.243 2.25 C 2.933 2.25 2.64 2.395 2.456 2.645 C 1.37 4.123 0 6.249 0 9.25 C 0 12.113 2.504 14.748 5.34 14.983 C 5.591 15.004 5.821 14.858 5.933 14.633 C 5.963 14.575 5.982 14.514 5.994 14.451 C 6.009 14.365 6.008 14.276 5.994 14.188 C 5.959 13.966 5.839 13.749 5.68 13.587 C 5.375 13.276 5.063 12.77 5.063 12 C 5.063 11.334 5.396 10.667 5.766 10.132 C 5.796 10.089 5.826 10.047 5.856 10.005 C 6.294 9.405 6.75 9 6.75 9 C 5.753 7.879 5.753 7.879 5.753 7.879 L 5.752 7.88 L 5.751 7.881 L 5.748 7.884 L 5.74 7.891 L 5.716 7.913 C 5.698 7.93 5.673 7.953 5.643 7.981 C 5.583 8.038 5.502 8.118 5.407 8.217 C 5.217 8.413 4.963 8.695 4.706 9.038 C 4.237 9.664 3.563 10.745 3.563 12 C 3.563 12.31 3.596 12.598 3.653 12.863 C 2.404 12.08 1.5 10.677 1.5 9.25 C 1.5 7.079 2.347 5.438 3.245 4.124 L 3.779 4.872 L 5.202 6.864 Z M 6.75 9 L 7.747 7.879 L 6.75 6.993 L 5.753 7.879 L 6.75 9 Z" fill="currentColor" fill-rule="evenodd"></path>
</svg>