<svg xmlns="http://www.w3.org/2000/svg" width="15" height="12.500" viewBox="0 0 15 12.500" fill="none">
  <path d="M 5.939 2.561 L 6.379 3 L 7 3 L 12 3 C 12.828 3 13.5 3.672 13.5 4.5 L 13.5 9.5 C 13.5 10.328 12.828 11 12 11 L 3 11 C 2.172 11 1.5 10.328 1.5 9.5 L 1.5 3 C 1.5 2.172 2.172 1.5 3 1.5 L 4.257 1.5 C 4.655 1.5 5.037 1.658 5.318 1.939 L 5.939 2.561 Z M 0 3 C 0 1.343 1.343 0 3 0 L 4.257 0 C 5.053 0 5.816 0.316 6.379 0.879 L 7 1.5 L 12 1.5 C 13.657 1.5 15 2.843 15 4.5 L 15 9.5 C 15 11.157 13.657 12.5 12 12.5 L 3 12.5 C 1.343 12.5 0 11.157 0 9.5 L 0 3 Z M 4.25 5 C 3.836 5 3.5 5.336 3.5 5.75 C 3.5 6.164 3.836 6.5 4.25 6.5 L 10.75 6.5 C 11.164 6.5 11.5 6.164 11.5 5.75 C 11.5 5.336 11.164 5 10.75 5 L 4.25 5 Z" fill="currentColor" fill-rule="evenodd"></path>
</svg>