<svg xmlns="http://www.w3.org/2000/svg" width="16" height="14" viewBox="0 0 16 14" fill="none">
  <path d="M 8.879 3 L 8.439 2.561 L 7.672 1.793 C 7.484 1.605 7.23 1.5 6.964 1.5 L 6 1.5 C 5.172 1.5 4.5 2.172 4.5 3 L 4.5 8 C 4.5 8.828 5.172 9.5 6 9.5 L 13 9.5 C 13.828 9.5 14.5 8.828 14.5 8 L 14.5 4.5 C 14.5 3.672 13.828 3 13 3 L 9.5 3 L 8.879 3 Z M 6 0 C 4.343 0 3 1.343 3 3 C 1.343 3 0 4.343 0 6 L 0 11 C 0 12.657 1.343 14 3 14 L 10 14 C 11.657 14 13 12.657 13 11 C 14.657 11 16 9.657 16 8 L 16 4.5 C 16 2.843 14.657 1.5 13 1.5 L 9.5 1.5 L 8.732 0.732 C 8.263 0.263 7.628 0 6.964 0 L 6 0 Z M 1.5 6 C 1.5 5.172 2.172 4.5 3 4.5 L 3 8 C 3 9.657 4.343 11 6 11 L 11.5 11 C 11.5 11.828 10.828 12.5 10 12.5 L 3 12.5 C 2.172 12.5 1.5 11.828 1.5 11 L 1.5 6 Z M 12.25 6 C 12.664 6 13 5.664 13 5.25 C 13 4.836 12.664 4.5 12.25 4.5 L 6.75 4.5 C 6.336 4.5 6 4.836 6 5.25 C 6 5.664 6.336 6 6.75 6 L 12.25 6 Z" fill="currentColor" fill-rule="evenodd"></path>
</svg>