<svg xmlns="http://www.w3.org/2000/svg" width="16" height="12.500" viewBox="0 0 16 12.500" fill="none">
  <path d="M 6.379 3 L 5.939 2.561 L 5.318 1.939 C 5.037 1.658 4.655 1.5 4.257 1.5 L 3 1.5 C 2.172 1.5 1.5 2.172 1.5 3 L 1.5 8.25 L 2.876 5.957 C 3.418 5.053 4.395 4.5 5.449 4.5 L 12.5 4.5 C 12.5 3.672 11.828 3 11 3 L 7 3 L 6.379 3 Z M 14 4.526 L 14 4.5 C 14 2.843 12.657 1.5 11 1.5 L 7 1.5 L 6.379 0.879 C 5.816 0.316 5.053 0 4.257 0 L 3 0 C 1.343 0 0 1.343 0 3 L 0 9.5 C 0 11.157 1.343 12.5 3 12.5 L 3.099 12.5 L 10 12.5 L 11.301 12.5 C 12.355 12.5 13.332 11.947 13.874 11.043 L 15.665 8.058 C 15.884 7.693 16 7.275 16 6.849 C 16 5.671 15.132 4.694 14 4.526 Z M 10 11 L 11.301 11 C 11.828 11 12.317 10.724 12.588 10.272 L 14.379 7.286 L 15.665 8.058 L 14.379 7.286 C 14.458 7.154 14.5 7.003 14.5 6.849 C 14.5 6.38 14.12 6 13.651 6 L 5.449 6 C 4.922 6 4.433 6.276 4.162 6.728 L 2.371 9.714 C 2.292 9.846 2.25 9.997 2.25 10.151 C 2.25 10.62 2.63 11 3.099 11 L 10 11 Z" fill="currentColor" fill-rule="evenodd"></path>
</svg>