<svg xmlns="http://www.w3.org/2000/svg" width="14.247" height="15" viewBox="0 0 14.247 15" fill="none">
  <path d="M 6.323 1.5 L 7.925 1.5 C 8.035 1.5 8.124 1.589 8.124 1.699 C 8.124 3.507 10.082 4.638 11.648 3.733 C 11.743 3.678 11.864 3.711 11.919 3.806 L 12.72 5.194 C 12.775 5.289 12.743 5.411 12.648 5.465 C 11.082 6.37 11.081 8.63 12.648 9.535 C 12.743 9.59 12.775 9.711 12.72 9.806 L 11.919 11.194 C 11.864 11.289 11.743 11.322 11.648 11.267 C 10.082 10.362 8.124 11.493 8.124 13.301 C 8.124 13.411 8.035 13.5 7.925 13.5 L 6.323 13.5 C 6.213 13.5 6.124 13.411 6.124 13.301 C 6.124 11.493 4.166 10.362 2.6 11.267 C 2.505 11.322 2.383 11.289 2.328 11.194 L 1.527 9.806 C 1.472 9.711 1.505 9.59 1.6 9.535 C 3.166 8.63 3.166 6.37 1.6 5.465 C 1.505 5.411 1.472 5.289 1.527 5.194 L 2.328 3.806 C 2.383 3.711 2.505 3.678 2.6 3.733 C 4.166 4.638 6.124 3.507 6.124 1.699 C 6.124 1.589 6.213 1.5 6.323 1.5 Z M 4.624 1.699 C 4.624 0.761 5.384 0 6.323 0 L 7.925 0 C 8.863 0 9.624 0.761 9.624 1.699 C 9.624 2.353 10.332 2.761 10.898 2.434 C 11.71 1.965 12.749 2.244 13.218 3.056 L 14.02 4.444 C 14.489 5.256 14.21 6.295 13.398 6.764 C 12.832 7.091 12.832 7.909 13.398 8.236 C 14.21 8.705 14.489 9.744 14.02 10.556 L 13.218 11.944 C 12.749 12.756 11.71 13.035 10.898 12.566 C 10.332 12.239 9.624 12.647 9.624 13.301 C 9.624 14.239 8.863 15 7.925 15 L 6.323 15 C 5.384 15 4.624 14.239 4.624 13.301 C 4.624 12.647 3.916 12.239 3.35 12.566 C 2.537 13.035 1.498 12.756 1.029 11.944 L 0.228 10.556 C -0.241 9.744 0.037 8.705 0.85 8.236 C 1.416 7.909 1.416 7.091 0.85 6.764 C 0.037 6.295 -0.241 5.256 0.228 4.444 L 1.029 3.056 C 1.498 2.244 2.537 1.965 3.35 2.434 C 3.916 2.761 4.624 2.353 4.624 1.699 Z M 8.624 7.5 C 8.624 8.328 7.952 9 7.124 9 C 6.295 9 5.624 8.328 5.624 7.5 C 5.624 6.672 6.295 6 7.124 6 C 7.952 6 8.624 6.672 8.624 7.5 Z M 10.124 7.5 C 10.124 9.157 8.781 10.5 7.124 10.5 C 5.467 10.5 4.124 9.157 4.124 7.5 C 4.124 5.843 5.467 4.5 7.124 4.5 C 8.781 4.5 10.124 5.843 10.124 7.5 Z" fill="currentColor" fill-rule="evenodd"></path>
</svg>