<svg xmlns="http://www.w3.org/2000/svg" width="14" height="14.701" viewBox="0 0 14 14.701" fill="none">
  <path d="M 8.035 3.564 L 8.217 2.287 C 8.277 1.871 8.614 1.547 9.035 1.505 C 9.633 1.445 10.124 1.967 10.031 2.556 C 9.971 2.934 9.682 3.235 9.307 3.31 L 8.035 3.564 Z M 6.25 5.201 L 6.25 5.451 L 6.25 7.201 L 2.5 7.201 L 2 7.201 C 1.724 7.201 1.5 6.977 1.5 6.701 L 1.5 5.701 C 1.5 5.425 1.724 5.201 2 5.201 L 6.25 5.201 Z M 7 1.265 C 6.626 0.577 5.929 0.094 5.114 0.012 C 3.541 -0.145 2.241 1.228 2.488 2.79 C 2.54 3.121 2.659 3.429 2.83 3.701 L 2 3.701 C 0.895 3.701 0 4.596 0 5.701 L 0 6.701 C 0 7.441 0.402 8.088 1 8.433 L 1 8.701 L 1 11.701 C 1 13.358 2.343 14.701 4 14.701 L 10 14.701 C 11.657 14.701 13 13.358 13 11.701 L 13 8.701 L 13 8.433 C 13.598 8.088 14 7.441 14 6.701 L 14 5.701 C 14 4.596 13.105 3.701 12 3.701 L 11.17 3.701 C 11.341 3.429 11.46 3.121 11.512 2.79 C 11.759 1.228 10.459 -0.145 8.886 0.012 C 8.071 0.094 7.374 0.577 7 1.265 Z M 7.75 5.451 L 7.75 7.201 L 11.5 7.201 L 12 7.201 C 12.276 7.201 12.5 6.977 12.5 6.701 L 12.5 5.701 C 12.5 5.425 12.276 5.201 12 5.201 L 7.75 5.201 L 7.75 5.451 Z M 6.25 8.701 L 2.5 8.701 L 2.5 11.701 C 2.5 12.529 3.172 13.201 4 13.201 L 6.25 13.201 L 6.25 8.701 Z M 7.75 13.201 L 7.75 8.701 L 11.5 8.701 L 11.5 11.701 C 11.5 12.529 10.828 13.201 10 13.201 L 7.75 13.201 Z M 5.783 2.287 L 5.965 3.564 L 4.693 3.31 C 4.318 3.235 4.029 2.934 3.969 2.556 C 3.876 1.967 4.367 1.445 4.965 1.505 C 5.386 1.547 5.723 1.871 5.783 2.287 Z" fill="currentColor" fill-rule="evenodd"></path>
</svg>