<svg xmlns="http://www.w3.org/2000/svg" width="14" height="14" viewBox="0 0 14 14" fill="none">
  <path d="M 8.208 11.346 C 7.723 12.346 7.255 12.5 7 12.5 C 6.745 12.5 6.277 12.346 5.792 11.346 C 5.42 10.578 5.145 9.488 5.043 8.159 C 5.676 8.219 6.331 8.25 7 8.25 C 7.669 8.25 8.324 8.219 8.957 8.159 C 8.855 9.488 8.58 10.578 8.208 11.346 Z M 8.996 6.647 C 8.358 6.714 7.69 6.75 7 6.75 C 6.31 6.75 5.642 6.714 5.004 6.647 C 5.041 4.951 5.347 3.572 5.792 2.654 C 6.277 1.654 6.745 1.5 7 1.5 C 7.255 1.5 7.723 1.654 8.208 2.654 C 8.653 3.572 8.959 4.951 8.996 6.647 Z M 10.474 7.953 C 10.388 9.469 10.099 10.801 9.638 11.827 C 11.216 10.963 12.324 9.348 12.481 7.463 C 11.859 7.662 11.186 7.827 10.474 7.953 Z M 12.392 5.91 C 11.82 6.114 11.181 6.289 10.491 6.424 C 10.435 4.753 10.137 3.283 9.638 2.173 C 11.038 2.939 12.068 4.297 12.392 5.91 Z M 3.509 6.424 C 3.565 4.753 3.863 3.283 4.362 2.173 C 2.962 2.939 1.932 4.297 1.608 5.91 C 2.18 6.114 2.819 6.289 3.509 6.424 Z M 1.519 7.463 C 1.676 9.348 2.784 10.963 4.362 11.827 C 3.901 10.801 3.612 9.469 3.526 7.953 C 2.814 7.827 2.141 7.662 1.519 7.463 Z M 14 7 C 14 3.134 10.866 0 7 0 C 3.134 0 0 3.134 0 7 C 0 10.866 3.134 14 7 14 C 10.866 14 14 10.866 14 7 Z" fill="currentColor" fill-rule="evenodd"></path>
</svg>