<svg xmlns="http://www.w3.org/2000/svg" width="8" height="13" viewBox="0 0 8 13" fill="none">
  <path d="M 3 1.5 C 3 2.328 2.328 3 1.5 3 C 0.672 3 0 2.328 0 1.5 C 0 0.672 0.672 0 1.5 0 C 2.328 0 3 0.672 3 1.5 Z M 1.5 8 C 2.328 8 3 7.328 3 6.5 C 3 5.672 2.328 5 1.5 5 C 0.672 5 0 5.672 0 6.5 C 0 7.328 0.672 8 1.5 8 Z M 6.5 8 C 7.328 8 8 7.328 8 6.5 C 8 5.672 7.328 5 6.5 5 C 5.672 5 5 5.672 5 6.5 C 5 7.328 5.672 8 6.5 8 Z M 6.5 3 C 7.328 3 8 2.328 8 1.5 C 8 0.672 7.328 0 6.5 0 C 5.672 0 5 0.672 5 1.5 C 5 2.328 5.672 3 6.5 3 Z M 3 11.5 C 3 12.328 2.328 13 1.5 13 C 0.672 13 0 12.328 0 11.5 C 0 10.672 0.672 10 1.5 10 C 2.328 10 3 10.672 3 11.5 Z M 6.5 13 C 7.328 13 8 12.328 8 11.5 C 8 10.672 7.328 10 6.5 10 C 5.672 10 5 10.672 5 11.5 C 5 12.328 5.672 13 6.5 13 Z" fill="currentColor" fill-rule="evenodd"></path>
</svg>