<svg xmlns="http://www.w3.org/2000/svg" width="15.250" height="15" viewBox="0 0 15.250 15" fill="none">
  <path d="M 10.745 8.384 C 10.737 8.304 10.722 8.227 10.701 8.152 C 10.69 8.113 10.676 8.074 10.661 8.037 C 10.477 7.576 10.027 7.25 9.5 7.25 L 5.076 13.78 C 4.559 14.543 3.698 15 2.777 15 C 1.243 15 0 13.757 0 12.223 L 0 12.149 C 0 11.412 0.285 10.703 0.796 10.172 L 6.25 4.5 L 6.25 4.342 C 6.25 3.519 5.785 2.768 5.05 2.4 L 4.933 2.342 C 4.515 2.132 4.25 1.704 4.25 1.236 C 4.25 0.553 4.803 0 5.486 0 L 7.179 0 C 8.505 0 9.777 0.527 10.714 1.464 L 12.25 3 C 12.25 4.065 13.082 4.936 14.132 4.997 C 14.171 4.999 14.21 5 14.25 5 L 15.25 6 L 14.189 7.061 L 12.811 8.439 L 11.75 9.5 L 10.75 8.5 C 10.75 8.461 10.748 8.422 10.745 8.384 Z M 9.654 2.525 L 10.818 3.689 C 11.048 4.84 11.842 5.787 12.899 6.23 L 11.926 7.203 C 11.462 6.338 10.55 5.75 9.5 5.75 L 8.704 5.75 L 8.258 6.409 L 7.607 7.37 L 6.51 6.394 L 7.331 5.54 L 7.75 5.104 L 7.75 4.5 L 7.75 4.342 C 7.75 3.227 7.245 2.188 6.403 1.5 L 7.179 1.5 C 8.107 1.5 8.997 1.869 9.654 2.525 Z M 5.469 7.476 L 6.759 8.622 L 3.834 12.939 C 3.597 13.29 3.201 13.5 2.777 13.5 C 2.072 13.5 1.5 12.928 1.5 12.223 L 1.5 12.149 C 1.5 11.799 1.635 11.464 1.877 11.212 L 5.469 7.476 Z" fill="currentColor" fill-rule="evenodd"></path>
</svg>