<svg xmlns="http://www.w3.org/2000/svg" width="14" height="14" viewBox="0 0 14 14" fill="none">
  <path d="M 14 7 C 14 3.134 10.866 0 7 0 C 3.134 0 0 3.134 0 7 L 0 10.75 L 0 11 L 0.009 11 C 0.137 12.678 1.539 14 3.25 14 L 3.333 14 C 4.254 14 5 13.254 5 12.333 L 5 9.167 C 5 8.246 4.254 7.5 3.333 7.5 L 3.25 7.5 C 2.606 7.5 2.005 7.687 1.5 8.011 L 1.5 7 C 1.5 3.962 3.962 1.5 7 1.5 C 10.038 1.5 12.5 3.962 12.5 7 L 12.5 8.011 C 11.995 7.687 11.394 7.5 10.75 7.5 L 10.667 7.5 C 9.746 7.5 9 8.246 9 9.167 L 9 12.333 C 9 13.254 9.746 14 10.667 14 L 10.75 14 C 12.461 14 13.863 12.678 13.991 11 L 14 11 L 14 10.75 L 14 7 Z M 12.5 10.75 C 12.5 9.784 11.716 9 10.75 9 L 10.667 9 C 10.575 9 10.5 9.075 10.5 9.167 L 10.5 12.333 C 10.5 12.425 10.575 12.5 10.667 12.5 L 10.75 12.5 C 11.716 12.5 12.5 11.716 12.5 10.75 Z M 3.25 12.5 C 2.284 12.5 1.5 11.716 1.5 10.75 C 1.5 9.784 2.284 9 3.25 9 L 3.333 9 C 3.425 9 3.5 9.075 3.5 9.167 L 3.5 12.333 C 3.5 12.425 3.425 12.5 3.333 12.5 L 3.25 12.5 Z" fill="currentColor" fill-rule="evenodd"></path>
</svg>