<svg xmlns="http://www.w3.org/2000/svg" width="15" height="13" viewBox="0 0 15 13" fill="none">
  <path d="M 1.133 1.296 C 1.895 0.46 2.982 0 4.26 0 C 5.424 0 6.667 0.55 7.499 1.625 C 8.328 0.551 9.566 0 10.74 0 C 12.014 0 13.101 0.457 13.864 1.292 C 14.62 2.12 15 3.254 15 4.513 C 15 6.679 13.887 8.422 12.478 9.777 C 11.073 11.128 9.308 12.159 7.845 12.916 C 7.627 13.028 7.369 13.028 7.152 12.915 C 5.689 12.15 3.924 11.127 2.519 9.781 C 1.109 8.431 0 6.693 0 4.513 C 0 3.258 0.378 2.125 1.133 1.296 Z M 2.242 2.306 C 1.787 2.806 1.5 3.554 1.5 4.513 C 1.5 6.137 2.316 7.51 3.557 8.698 C 4.703 9.796 6.158 10.683 7.502 11.402 C 8.837 10.692 10.292 9.799 11.439 8.695 C 12.683 7.499 13.5 6.121 13.5 4.513 C 13.5 3.55 13.212 2.803 12.756 2.304 C 12.308 1.813 11.64 1.5 10.74 1.5 C 9.764 1.5 8.647 2.127 8.213 3.449 C 8.111 3.757 7.824 3.965 7.5 3.965 C 7.176 3.965 6.889 3.757 6.787 3.449 C 6.354 2.129 5.225 1.5 4.26 1.5 C 3.357 1.5 2.689 1.815 2.242 2.306 Z" fill="currentColor" fill-rule="evenodd"></path>
</svg>