<svg xmlns="http://www.w3.org/2000/svg" width="14" height="14" viewBox="0 0 14 14" fill="none">
  <path d="M 7 12.5 C 10.038 12.5 12.5 10.038 12.5 7 C 12.5 3.962 10.038 1.5 7 1.5 C 3.962 1.5 1.5 3.962 1.5 7 C 1.5 10.038 3.962 12.5 7 12.5 Z M 7 14 C 10.866 14 14 10.866 14 7 C 14 3.134 10.866 0 7 0 C 3.134 0 0 3.134 0 7 C 0 10.866 3.134 14 7 14 Z M 5.44 3.539 C 5.87 3.186 6.434 2.975 7 2.975 C 8.217 2.975 9.339 3.795 9.339 5.116 C 9.339 5.492 9.261 5.86 9.042 6.216 C 8.834 6.554 8.529 6.829 8.167 7.082 C 7.95 7.235 7.841 7.339 7.788 7.41 C 7.75 7.462 7.75 7.481 7.75 7.499 L 7.75 7.5 C 7.75 7.914 7.414 8.25 7 8.25 C 6.586 8.25 6.25 7.914 6.25 7.5 C 6.25 6.705 6.794 6.213 7.306 5.854 C 7.586 5.658 7.708 5.522 7.765 5.429 C 7.812 5.353 7.839 5.27 7.839 5.116 C 7.839 4.816 7.596 4.475 7 4.475 C 6.795 4.475 6.564 4.557 6.392 4.699 C 6.225 4.836 6.161 4.985 6.161 5.116 C 6.161 5.53 5.825 5.866 5.411 5.866 C 4.996 5.866 4.661 5.53 4.661 5.116 C 4.661 4.443 5.006 3.896 5.44 3.539 Z M 7 11 C 7.552 11 8 10.552 8 10 C 8 9.448 7.552 9 7 9 C 6.448 9 6 9.448 6 10 C 6 10.552 6.448 11 7 11 Z" fill="currentColor" fill-rule="evenodd"></path>
</svg>