<svg xmlns="http://www.w3.org/2000/svg" width="13" height="13.215" viewBox="0 0 13 13.215" fill="none">
  <path d="M 11 11.333 C 11.307 11.058 11.5 10.659 11.5 10.215 L 11.5 5.692 C 11.5 5.227 11.284 4.787 10.915 4.503 L 7.415 1.811 C 6.875 1.396 6.125 1.396 5.585 1.811 L 2.085 4.503 C 2.039 4.539 1.996 4.577 1.954 4.617 C 1.666 4.898 1.5 5.285 1.5 5.692 L 1.5 10.215 C 1.5 10.659 1.693 11.058 2 11.333 C 2.264 11.569 2.612 11.713 2.993 11.715 C 2.995 11.715 2.998 11.715 3 11.715 L 3.5 11.715 L 3.5 8.215 C 3.5 7.111 4.395 6.215 5.5 6.215 L 7.5 6.215 C 8.605 6.215 9.5 7.111 9.5 8.215 L 9.5 11.715 L 10 11.715 C 10.002 11.715 10.005 11.715 10.007 11.715 C 10.388 11.713 10.736 11.569 11 11.333 Z M 13 10.215 C 13 11.872 11.657 13.215 10 13.215 L 3 13.215 C 1.343 13.215 0 11.872 0 10.215 L 0 5.692 C 0 4.761 0.433 3.882 1.171 3.314 L 4.671 0.622 C 5.749 -0.207 7.251 -0.207 8.329 0.622 L 11.829 3.314 C 11.921 3.385 12.009 3.461 12.091 3.541 C 12.669 4.103 13 4.877 13 5.692 L 13 10.215 Z M 8 8.215 C 8 7.939 7.776 7.715 7.5 7.715 L 5.5 7.715 C 5.224 7.715 5 7.939 5 8.215 L 5 11.715 L 8 11.715 L 8 8.215 Z" fill="currentColor" fill-rule="evenodd"></path>
</svg>