<svg xmlns="http://www.w3.org/2000/svg" width="13" height="13" viewBox="0 0 13 13" fill="none">
  <path d="M 10 1.5 L 3 1.5 C 2.172 1.5 1.5 2.172 1.5 3 L 1.5 8.027 L 2.462 7.328 C 3.083 6.876 3.926 6.882 4.541 7.343 L 5.469 8.039 L 7.837 6.009 C 8.51 5.432 9.51 5.45 10.162 6.052 L 11.5 7.287 L 11.5 3 C 11.5 2.172 10.828 1.5 10 1.5 Z M 13 8.998 L 13 3 C 13 1.343 11.657 0 10 0 L 3 0 C 1.343 0 0 1.343 0 3 L 0 9.492 C 0 9.498 0 9.504 0 9.51 L 0 10 C 0 11.657 1.343 13 3 13 L 10 13 C 11.657 13 13 11.657 13 10 L 13 9.003 L 13 8.998 Z M 11.5 9.328 L 9.145 7.154 C 9.052 7.068 8.909 7.066 8.813 7.148 L 5.988 9.569 L 5.531 9.961 L 5.05 9.6 L 3.641 8.543 C 3.553 8.477 3.433 8.476 3.344 8.541 L 1.5 9.882 L 1.5 10 C 1.5 10.828 2.172 11.5 3 11.5 L 10 11.5 C 10.828 11.5 11.5 10.828 11.5 10 L 11.5 9.328 Z M 6 4.5 C 6 5.328 5.328 6 4.5 6 C 3.672 6 3 5.328 3 4.5 C 3 3.672 3.672 3 4.5 3 C 5.328 3 6 3.672 6 4.5 Z" fill="currentColor" fill-rule="evenodd"></path>
</svg>