<svg xmlns="http://www.w3.org/2000/svg" width="11.427" height="15.000" viewBox="0 0 11.427 15.000" fill="none">
  <path d="M 8.026 6.988 L 6.714 7.153 L 6.714 8.476 L 6.714 12.523 C 6.714 12.742 6.57 12.936 6.361 13.001 L 4.741 13.499 C 4.739 13.5 4.737 13.5 4.735 13.5 C 4.731 13.5 4.73 13.5 4.729 13.5 L 4.727 13.499 C 4.726 13.498 4.723 13.497 4.72 13.494 C 4.717 13.491 4.715 13.488 4.715 13.487 L 4.714 13.485 L 4.714 13.484 C 4.714 13.483 4.714 13.481 4.714 13.479 L 4.714 8.476 L 4.714 7.153 L 3.401 6.988 C 2.787 6.911 2.274 6.459 2.129 5.844 L 1.541 3.344 C 1.32 2.402 2.034 1.5 3.001 1.5 L 8.426 1.5 C 9.393 1.5 10.107 2.402 9.886 3.344 L 9.298 5.844 C 9.153 6.459 8.64 6.911 8.026 6.988 Z M 10.758 6.187 C 10.468 7.419 9.443 8.322 8.214 8.476 L 8.214 12.523 C 8.214 13.401 7.641 14.176 6.802 14.434 L 5.182 14.933 C 5.037 14.977 4.886 15 4.735 15 C 3.895 15 3.214 14.319 3.214 13.479 L 3.214 8.476 C 1.984 8.322 0.959 7.419 0.669 6.187 L 0.081 3.687 C -0.362 1.804 1.067 0 3.001 0 L 8.426 0 C 10.36 0 11.789 1.804 11.346 3.687 L 10.758 6.187 Z M 4.464 3 C 4.049 3 3.714 3.336 3.714 3.75 C 3.714 4.164 4.049 4.5 4.464 4.5 L 6.964 4.5 C 7.378 4.5 7.714 4.164 7.714 3.75 C 7.714 3.336 7.378 3 6.964 3 L 4.464 3 Z" fill="currentColor" fill-rule="evenodd"></path>
</svg>