<svg xmlns="http://www.w3.org/2000/svg" width="16" height="11" viewBox="0 0 16 11" fill="none">
  <path d="M 3 1.5 L 13 1.5 C 13.828 1.5 14.5 2.172 14.5 3 L 14.5 8 C 14.5 8.828 13.828 9.5 13 9.5 L 3 9.5 C 2.172 9.5 1.5 8.828 1.5 8 L 1.5 3 C 1.5 2.172 2.172 1.5 3 1.5 Z M 0 3 C 0 1.343 1.343 0 3 0 L 13 0 C 14.657 0 16 1.343 16 3 L 16 8 C 16 9.657 14.657 11 13 11 L 3 11 C 1.343 11 0 9.657 0 8 L 0 3 Z M 6.25 6.25 C 5.836 6.25 5.5 6.586 5.5 7 C 5.5 7.414 5.836 7.75 6.25 7.75 L 9.75 7.75 C 10.164 7.75 10.5 7.414 10.5 7 C 10.5 6.586 10.164 6.25 9.75 6.25 L 6.25 6.25 Z M 4.5 4 C 4.5 4.552 4.052 5 3.5 5 C 2.948 5 2.5 4.552 2.5 4 C 2.5 3.448 2.948 3 3.5 3 C 4.052 3 4.5 3.448 4.5 4 Z M 6.5 5 C 7.052 5 7.5 4.552 7.5 4 C 7.5 3.448 7.052 3 6.5 3 C 5.948 3 5.5 3.448 5.5 4 C 5.5 4.552 5.948 5 6.5 5 Z M 10.5 4 C 10.5 4.552 10.052 5 9.5 5 C 8.948 5 8.5 4.552 8.5 4 C 8.5 3.448 8.948 3 9.5 3 C 10.052 3 10.5 3.448 10.5 4 Z M 12.5 5 C 13.052 5 13.5 4.552 13.5 4 C 13.5 3.448 13.052 3 12.5 3 C 11.948 3 11.5 3.448 11.5 4 C 11.5 4.552 11.948 5 12.5 5 Z M 4.5 7 C 4.5 7.552 4.052 8 3.5 8 C 2.948 8 2.5 7.552 2.5 7 C 2.5 6.448 2.948 6 3.5 6 C 4.052 6 4.5 6.448 4.5 7 Z M 12.5 8 C 13.052 8 13.5 7.552 13.5 7 C 13.5 6.448 13.052 6 12.5 6 C 11.948 6 11.5 6.448 11.5 7 C 11.5 7.552 11.948 8 12.5 8 Z" fill="currentColor" fill-rule="evenodd"></path>
</svg>