<svg xmlns="http://www.w3.org/2000/svg" width="14" height="13" viewBox="0 0 14 13" fill="none">
  <path d="M 11 1.5 L 3 1.5 C 2.172 1.5 1.5 2.172 1.5 3 L 1.5 7 C 1.5 7.828 2.172 8.5 3 8.5 L 11 8.5 C 11.828 8.5 12.5 7.828 12.5 7 L 12.5 3 C 12.5 2.172 11.828 1.5 11 1.5 Z M 3 0 C 1.343 0 0 1.343 0 3 L 0 7 C 0 8.657 1.343 10 3 10 L 6.25 10 L 6.25 11.5 L 3.75 11.5 C 3.336 11.5 3 11.836 3 12.25 C 3 12.664 3.336 13 3.75 13 L 10.25 13 C 10.664 13 11 12.664 11 12.25 C 11 11.836 10.664 11.5 10.25 11.5 L 7.75 11.5 L 7.75 10 L 11 10 C 12.657 10 14 8.657 14 7 L 14 3 C 14 1.343 12.657 0 11 0 L 3 0 Z" fill="currentColor" fill-rule="evenodd"></path>
</svg>