<svg xmlns="http://www.w3.org/2000/svg" width="13" height="13" viewBox="0 0 13 13" fill="none">
  <path d="M 1.97 5.03 C 2.263 4.737 2.737 4.737 3.03 5.03 C 3.323 5.323 3.323 5.798 3.03 6.091 L 2.303 6.818 C 1.789 7.332 1.5 8.03 1.5 8.757 C 1.5 10.272 2.728 11.5 4.243 11.5 C 4.97 11.5 5.668 11.211 6.182 10.697 L 6.909 9.97 C 7.202 9.677 7.677 9.677 7.97 9.97 C 8.263 10.263 8.263 10.737 7.97 11.03 L 7.243 11.757 C 6.447 12.553 5.368 13 4.243 13 C 1.899 13 0 11.101 0 8.757 C 0 7.632 0.447 6.553 1.243 5.757 L 1.97 5.03 Z M 9.97 6.909 C 9.677 7.202 9.677 7.677 9.97 7.97 C 10.263 8.263 10.737 8.263 11.03 7.97 L 11.757 7.243 C 12.553 6.447 13 5.368 13 4.243 C 13 1.899 11.101 0 8.757 0 C 7.632 0 6.553 0.447 5.757 1.243 L 5.03 1.97 C 4.737 2.263 4.737 2.737 5.03 3.03 C 5.323 3.323 5.798 3.323 6.091 3.03 L 6.818 2.303 C 7.332 1.789 8.03 1.5 8.757 1.5 C 10.272 1.5 11.5 2.728 11.5 4.243 C 11.5 4.97 11.211 5.668 10.697 6.182 L 9.97 6.909 Z M 9.03 5.03 C 9.323 4.737 9.323 4.263 9.03 3.97 C 8.737 3.677 8.263 3.677 7.97 3.97 L 3.97 7.97 C 3.677 8.263 3.677 8.737 3.97 9.03 C 4.263 9.323 4.737 9.323 5.03 9.03 L 9.03 5.03 Z" fill="currentColor" fill-rule="evenodd"></path>
</svg>