<svg xmlns="http://www.w3.org/2000/svg" width="14" height="14" viewBox="0 0 14 14" fill="none">
  <path d="M 9.5 4 C 9.5 2.619 8.381 1.5 7 1.5 C 6.163 1.5 5.421 1.912 4.968 2.544 C 4.726 2.88 4.309 3.103 3.916 2.972 C 3.523 2.841 3.305 2.411 3.507 2.05 C 4.191 0.827 5.499 0 7 0 C 9.209 0 11 1.791 11 4 L 11 5 L 11 5 C 12.657 5 14 6.343 14 8 L 14 11 C 14 12.657 12.657 14 11 14 L 3 14 C 1.343 14 0 12.657 0 11 L 0 8 C 0 6.343 1.343 5 3 5 L 9.5 5 L 9.5 4 Z M 10.25 6.5 L 3 6.5 C 2.172 6.5 1.5 7.172 1.5 8 L 1.5 11 C 1.5 11.828 2.172 12.5 3 12.5 L 11 12.5 C 11.828 12.5 12.5 11.828 12.5 11 L 12.5 8 C 12.5 7.172 11.828 6.5 11 6.5 L 10.25 6.5 Z M 7 7.75 C 7.414 7.75 7.75 8.086 7.75 8.5 L 7.75 10.5 C 7.75 10.914 7.414 11.25 7 11.25 C 6.586 11.25 6.25 10.914 6.25 10.5 L 6.25 8.5 C 6.25 8.086 6.586 7.75 7 7.75 Z" fill="currentColor" fill-rule="evenodd"></path>
</svg>