<svg xmlns="http://www.w3.org/2000/svg" width="14" height="14" viewBox="0 0 14 14" fill="none">
  <path d="M 9.5 5 L 9.5 4 C 9.5 2.619 8.381 1.5 7 1.5 C 5.619 1.5 4.5 2.619 4.5 4 L 4.5 5 L 9.5 5 Z M 3 4 L 3 5 C 1.343 5 0 6.343 0 8 L 0 11 C 0 12.657 1.343 14 3 14 L 11 14 C 12.657 14 14 12.657 14 11 L 14 8 C 14 6.343 12.657 5 11 5 L 11 4 C 11 1.791 9.209 0 7 0 C 4.791 0 3 1.791 3 4 Z M 9.5 6.5 L 11 6.5 C 11.828 6.5 12.5 7.172 12.5 8 L 12.5 11 C 12.5 11.828 11.828 12.5 11 12.5 L 3 12.5 C 2.172 12.5 1.5 11.828 1.5 11 L 1.5 8 C 1.5 7.172 2.172 6.5 3 6.5 L 4.5 6.5 L 9.5 6.5 Z M 7.75 8.5 C 7.75 8.086 7.414 7.75 7 7.75 C 6.586 7.75 6.25 8.086 6.25 8.5 L 6.25 10.5 C 6.25 10.914 6.586 11.25 7 11.25 C 7.414 11.25 7.75 10.914 7.75 10.5 L 7.75 8.5 Z" fill="currentColor" fill-rule="evenodd"></path>
</svg>