<svg xmlns="http://www.w3.org/2000/svg" width="15" height="11" viewBox="0 0 15 11" fill="none">
  <path d="M 3 1.5 L 12 1.5 C 12.249 1.5 12.485 1.561 12.692 1.669 L 8.25 5 C 7.806 5.333 7.194 5.333 6.75 5 L 2.308 1.669 C 2.515 1.561 2.751 1.5 3 1.5 Z M 1.501 2.938 C 1.5 2.959 1.5 2.979 1.5 3 L 1.5 8 C 1.5 8.828 2.172 9.5 3 9.5 L 12 9.5 C 12.828 9.5 13.5 8.828 13.5 8 L 13.5 3 C 13.5 2.979 13.5 2.959 13.499 2.938 L 9.15 6.2 C 8.172 6.933 6.828 6.933 5.85 6.2 L 1.501 2.938 Z M 0 3 C 0 1.343 1.343 0 3 0 L 12 0 C 13.657 0 15 1.343 15 3 L 15 8 C 15 9.657 13.657 11 12 11 L 3 11 C 1.343 11 0 9.657 0 8 L 0 3 Z" fill="currentColor" fill-rule="evenodd"></path>
</svg>