<svg xmlns="http://www.w3.org/2000/svg" width="13" height="15" viewBox="0 0 13 15" fill="none">
  <path d="M 1.625 6.5 C 1.625 3.808 3.808 1.625 6.5 1.625 C 9.192 1.625 11.375 3.808 11.375 6.5 C 11.375 8.364 10.601 9.462 9.688 10.315 C 9.303 10.675 8.923 10.965 8.519 11.273 L 8.519 11.273 C 8.399 11.364 8.278 11.457 8.153 11.554 C 7.901 11.75 7.62 11.976 7.372 12.221 C 7.129 12.461 6.837 12.796 6.642 13.232 C 6.608 13.307 6.567 13.348 6.547 13.363 C 6.538 13.37 6.534 13.371 6.532 13.372 L 6.532 13.372 C 6.531 13.372 6.522 13.375 6.5 13.375 C 6.478 13.375 6.469 13.372 6.468 13.372 L 6.468 13.372 C 6.466 13.371 6.462 13.37 6.453 13.363 C 6.433 13.348 6.392 13.307 6.358 13.232 C 6.163 12.796 5.871 12.461 5.628 12.221 C 5.38 11.976 5.099 11.75 4.847 11.554 C 4.722 11.457 4.601 11.364 4.481 11.273 L 4.481 11.273 C 4.077 10.965 3.697 10.675 3.312 10.315 C 2.399 9.462 1.625 8.364 1.625 6.5 Z M 13 6.5 C 13 9.899 10.934 11.475 9.471 12.591 C 8.836 13.075 8.314 13.473 8.125 13.896 C 7.854 14.5 7.288 15 6.5 15 C 5.712 15 5.146 14.5 4.875 13.896 C 4.686 13.473 4.164 13.075 3.529 12.591 C 2.066 11.475 0 9.899 0 6.5 C 0 2.91 2.91 0 6.5 0 C 10.09 0 13 2.91 13 6.5 Z M 8 6.5 C 8 7.328 7.328 8 6.5 8 C 5.672 8 5 7.328 5 6.5 C 5 5.672 5.672 5 6.5 5 C 7.328 5 8 5.672 8 6.5 Z M 9.5 6.5 C 9.5 8.157 8.157 9.5 6.5 9.5 C 4.843 9.5 3.5 8.157 3.5 6.5 C 3.5 4.843 4.843 3.5 6.5 3.5 C 8.157 3.5 9.5 4.843 9.5 6.5 Z" fill="currentColor" fill-rule="evenodd"></path>
</svg>