<svg xmlns="http://www.w3.org/2000/svg" width="12" height="16" viewBox="0 0 12 16" fill="none">
  <path d="M 9.836 1.5 C 10.203 1.5 10.5 1.797 10.5 2.164 C 10.5 2.329 10.438 2.488 10.327 2.61 L 9.973 3 L 2.027 3 L 1.673 2.61 C 1.562 2.488 1.5 2.329 1.5 2.164 C 1.5 1.797 1.797 1.5 2.164 1.5 L 9.836 1.5 Z M 3.391 4.5 L 5.515 6.836 C 5.61 6.941 5.744 7 5.885 7 L 6 7 L 6.115 7 C 6.256 7 6.39 6.941 6.485 6.836 L 8.609 4.5 L 3.391 4.5 Z M 4.043 7.447 L 1.5 4.65 L 1.5 6.502 C 1.5 6.623 1.544 6.739 1.623 6.83 L 2.871 8.266 C 3.214 7.934 3.609 7.657 4.043 7.447 Z M 1.964 9.508 L 0.491 7.814 C 0.174 7.45 0 6.984 0 6.502 L 0 2.164 L 0 2 C 0 0.895 0.895 0 2 0 L 2.164 0 L 9.836 0 L 10 0 C 11.105 0 12 0.895 12 2 L 12 2.164 L 12 6.502 C 12 6.984 11.826 7.45 11.509 7.814 L 10.036 9.508 C 10.333 10.109 10.5 10.785 10.5 11.5 C 10.5 13.985 8.485 16 6 16 C 3.515 16 1.5 13.985 1.5 11.5 C 1.5 10.785 1.667 10.109 1.964 9.508 Z M 9.129 8.266 C 8.786 7.934 8.391 7.657 7.957 7.447 L 10.5 4.65 L 10.5 6.502 C 10.5 6.623 10.456 6.739 10.377 6.83 L 9.129 8.266 Z M 9 11.5 C 9 13.157 7.657 14.5 6 14.5 C 4.343 14.5 3 13.157 3 11.5 C 3 9.843 4.343 8.5 6 8.5 C 7.657 8.5 9 9.843 9 11.5 Z" fill="currentColor" fill-rule="evenodd"></path>
</svg>