<svg xmlns="http://www.w3.org/2000/svg" width="12.500" height="14.500" viewBox="0 0 12.500 14.500" fill="none">
  <path d="M 9.615 3.888 C 10.429 3.513 10.5 3.174 10.5 3 C 10.5 2.826 10.429 2.487 9.615 2.112 C 8.799 1.737 7.538 1.5 6 1.5 C 4.462 1.5 3.201 1.737 2.385 2.112 C 1.571 2.487 1.5 2.826 1.5 3 C 1.5 3.174 1.571 3.513 2.385 3.888 C 3.201 4.263 4.462 4.5 6 4.5 C 7.538 4.5 8.799 4.263 9.615 3.888 Z M 6 6 C 7.469 6 8.815 5.804 9.858 5.411 L 7.31 12.097 C 7.103 12.641 6.582 13 6 13 C 5.418 13 4.897 12.641 4.69 12.097 L 2.142 5.411 C 3.185 5.804 4.531 6 6 6 Z M 12 3 C 12 1 9.314 0 6 0 C 2.686 0 0 1 0 3 C 0 3.661 0.121 4.317 0.356 4.934 L 3.288 12.631 C 3.717 13.756 4.796 14.5 6 14.5 C 7.204 14.5 8.283 13.756 8.712 12.631 L 9.027 11.804 C 9.326 11.93 9.655 12 10 12 C 11.381 12 12.5 10.881 12.5 9.5 C 12.5 8.402 11.791 7.468 10.806 7.133 L 11.644 4.934 C 11.879 4.317 12 3.661 12 3 Z M 10.271 8.537 L 9.562 10.399 C 9.694 10.464 9.843 10.5 10 10.5 C 10.552 10.5 11 10.052 11 9.5 C 11 9.042 10.692 8.656 10.271 8.537 Z" fill="currentColor" fill-rule="evenodd"></path>
</svg>