<svg xmlns="http://www.w3.org/2000/svg" width="12" height="15" viewBox="0 0 12 15" fill="none">
  <path d="M 7.5 6.5 L 7.5 3 C 7.5 2.172 6.828 1.5 6 1.5 C 5.172 1.5 4.5 2.172 4.5 3 L 4.5 6.5 C 4.5 7.328 5.172 8 6 8 C 6.828 8 7.5 7.328 7.5 6.5 Z M 6 0 C 4.343 0 3 1.343 3 3 L 3 6.5 C 3 8.157 4.343 9.5 6 9.5 C 7.657 9.5 9 8.157 9 6.5 L 9 3 C 9 1.343 7.657 0 6 0 Z M 6.75 12.454 C 9.71 12.085 12 9.56 12 6.5 L 12 6.25 C 12 5.836 11.664 5.5 11.25 5.5 C 10.836 5.5 10.5 5.836 10.5 6.25 L 10.5 6.5 C 10.5 8.985 8.485 11 6 11 C 3.515 11 1.5 8.985 1.5 6.5 L 1.5 6.25 C 1.5 5.836 1.164 5.5 0.75 5.5 C 0.336 5.5 0 5.836 0 6.25 L 0 6.5 C 0 9.56 2.29 12.085 5.25 12.454 L 5.25 14.25 C 5.25 14.664 5.586 15 6 15 C 6.414 15 6.75 14.664 6.75 14.25 L 6.75 12.454 Z" fill="currentColor" fill-rule="evenodd"></path>
</svg>