<svg xmlns="http://www.w3.org/2000/svg" width="14" height="14" viewBox="0 0 14 14" fill="none">
  <path d="M 7 12.5 C 10.038 12.5 12.5 10.038 12.5 7 C 12.5 4.769 11.172 2.849 9.263 1.986 C 9.576 2.676 9.75 3.443 9.75 4.25 C 9.75 7.288 7.288 9.75 4.25 9.75 C 3.443 9.75 2.676 9.576 1.986 9.263 C 2.849 11.172 4.769 12.5 7 12.5 Z M 0.045 7.795 C 0.439 11.287 3.403 14 7 14 C 10.866 14 14 10.866 14 7 C 14 3.403 11.287 0.439 7.795 0.045 C 7.795 0.045 7.795 0.045 7.794 0.045 C 7.785 0.044 7.776 0.043 7.767 0.042 C 7.515 0.014 7.259 0 7 0 C 6.473 0 6.41 0.842 6.815 1.18 C 6.878 1.233 6.94 1.288 7 1.345 C 7.05 1.392 7.098 1.44 7.145 1.49 C 7.149 1.494 7.153 1.498 7.157 1.502 C 7.834 2.219 8.25 3.186 8.25 4.25 C 8.25 6.459 6.459 8.25 4.25 8.25 C 3.186 8.25 2.219 7.834 1.502 7.157 C 1.498 7.153 1.494 7.149 1.49 7.145 C 1.44 7.098 1.392 7.05 1.345 7 C 1.288 6.94 1.233 6.878 1.18 6.815 C 0.842 6.41 0 6.473 0 7 C 0 7.259 0.014 7.515 0.042 7.767 C 0.043 7.776 0.044 7.785 0.045 7.794 C 0.045 7.795 0.045 7.795 0.045 7.795 Z" fill="currentColor" fill-rule="evenodd"></path>
</svg>