<svg xmlns="http://www.w3.org/2000/svg" width="16" height="16" viewBox="0 0 16 16"><path d="M 1.5 3 C 2.328 3 3 2.328 3 1.5 C 3 0.672 2.328 0 1.5 0 C 0.672 0 0 0.672 0 1.5 C 0 2.328 0.672 3 1.5 3 Z M 3 6.5 C 3 7.328 2.328 8 1.5 8 C 0.672 8 0 7.328 0 6.5 C 0 5.672 0.672 5 1.5 5 C 2.328 5 3 5.672 3 6.5 Z M 3 11.5 C 3 12.328 2.328 13 1.5 13 C 0.672 13 0 12.328 0 11.5 C 0 10.672 0.672 10 1.5 10 C 2.328 10 3 10.672 3 11.5 Z" transform="translate(6.5 1.5)" fill="currentColor" fill-rule="evenodd"></path></svg>