<svg xmlns="http://www.w3.org/2000/svg" width="16" height="16" viewBox="0 0 16 16"><path d="M 1.5 3 C 2.328 3 3 2.328 3 1.5 C 3 0.672 2.328 0 1.5 0 C 0.672 0 0 0.672 0 1.5 C 0 2.328 0.672 3 1.5 3 Z M 8 1.5 C 8 2.328 7.328 3 6.5 3 C 5.672 3 5 2.328 5 1.5 C 5 0.672 5.672 0 6.5 0 C 7.328 0 8 0.672 8 1.5 Z M 13 1.5 C 13 2.328 12.328 3 11.5 3 C 10.672 3 10 2.328 10 1.5 C 10 0.672 10.672 0 11.5 0 C 12.328 0 13 0.672 13 1.5 Z" transform="translate(1.5 6.5)" fill="currentColor" fill-rule="evenodd"></path></svg>