<svg xmlns="http://www.w3.org/2000/svg" width="12.500" height="14.500" viewBox="0 0 12.500 14.500" fill="none">
  <path d="M 8.269 9.731 C 8.273 9.727 8.277 9.723 8.28 9.72 L 11.361 6.639 C 12.09 5.91 12.5 4.921 12.5 3.889 C 12.5 1.741 10.759 0 8.611 0 C 7.579 0 6.59 0.41 5.861 1.139 L 3.231 3.769 L 3.22 3.78 L 1.553 5.446 C 0.559 6.441 0 7.79 0 9.196 C 0 12.125 2.374 14.5 5.303 14.5 C 6.71 14.5 8.059 13.941 9.053 12.946 L 12.22 9.78 C 12.513 9.487 12.513 9.012 12.22 8.719 C 11.927 8.427 11.452 8.427 11.159 8.719 L 7.993 11.886 C 7.279 12.599 6.312 13 5.303 13 C 3.203 13 1.5 11.297 1.5 9.196 C 1.5 8.188 1.901 7.22 2.614 6.507 L 3.83 5.291 L 3.841 5.28 L 6.922 2.2 C 7.37 1.752 7.977 1.5 8.611 1.5 C 9.93 1.5 11 2.57 11 3.889 C 11 4.523 10.748 5.13 10.3 5.578 L 9.17 6.709 C 9.166 6.712 9.163 6.716 9.159 6.72 L 6.164 9.714 C 5.981 9.897 5.733 10 5.475 10 C 4.936 10 4.5 9.563 4.5 9.025 C 4.5 8.766 4.603 8.518 4.786 8.336 L 7.78 5.341 C 8.073 5.048 8.073 4.573 7.78 4.28 C 7.487 3.987 7.012 3.987 6.72 4.28 L 3.725 7.275 C 3.261 7.739 3 8.369 3 9.025 C 3 10.392 4.108 11.5 5.475 11.5 C 6.131 11.5 6.761 11.239 7.225 10.775 L 8.269 9.731 Z" fill="currentColor" fill-rule="evenodd"></path>
</svg>