<svg xmlns="http://www.w3.org/2000/svg" width="13" height="13" viewBox="0 0 13 13" fill="none">
  <path d="M 2 1.5 L 3.75 1.5 C 4.026 1.5 4.25 1.724 4.25 2 L 4.25 11 C 4.25 11.276 4.026 11.5 3.75 11.5 L 2 11.5 C 1.724 11.5 1.5 11.276 1.5 11 L 1.5 2 C 1.5 1.724 1.724 1.5 2 1.5 Z M 0 2 C 0 0.895 0.895 0 2 0 L 3.75 0 C 4.855 0 5.75 0.895 5.75 2 L 5.75 11 C 5.75 12.105 4.855 13 3.75 13 L 2 13 C 0.895 13 0 12.105 0 11 L 0 2 Z M 9.25 1.5 L 11 1.5 C 11.276 1.5 11.5 1.724 11.5 2 L 11.5 11 C 11.5 11.276 11.276 11.5 11 11.5 L 9.25 11.5 C 8.974 11.5 8.75 11.276 8.75 11 L 8.75 2 C 8.75 1.724 8.974 1.5 9.25 1.5 Z M 7.25 2 C 7.25 0.895 8.145 0 9.25 0 L 11 0 C 12.105 0 13 0.895 13 2 L 13 11 C 13 12.105 12.105 13 11 13 L 9.25 13 C 8.145 13 7.25 12.105 7.25 11 L 7.25 2 Z" fill="currentColor" fill-rule="evenodd"></path>
</svg>