<svg xmlns="http://www.w3.org/2000/svg" width="13" height="13" viewBox="0 0 13 13" fill="none">
  <path d="M 3 6 C 2.473 6 1.978 5.864 1.547 5.625 C 0.625 5.114 0 4.13 0 3 C 0 1.343 1.343 0 3 0 C 4.657 0 6 1.343 6 3 C 6 3.527 5.864 4.022 5.625 4.453 C 5.114 5.375 4.13 6 3 6 Z M 4.5 3 C 4.5 3.828 3.828 4.5 3 4.5 C 2.172 4.5 1.5 3.828 1.5 3 C 1.5 2.172 2.172 1.5 3 1.5 C 3.828 1.5 4.5 2.172 4.5 3 Z M 10 13 C 9.473 13 8.978 12.864 8.547 12.625 C 7.625 12.114 7 11.13 7 10 C 7 8.343 8.343 7 10 7 C 11.657 7 13 8.343 13 10 C 13 10.527 12.864 11.022 12.625 11.453 C 12.114 12.375 11.13 13 10 13 Z M 11.5 10 C 11.5 10.828 10.828 11.5 10 11.5 C 9.172 11.5 8.5 10.828 8.5 10 C 8.5 9.172 9.172 8.5 10 8.5 C 10.828 8.5 11.5 9.172 11.5 10 Z M 12.28 1.78 C 12.573 1.487 12.573 1.013 12.28 0.72 C 11.987 0.427 11.513 0.427 11.22 0.72 L 0.72 11.22 C 0.427 11.513 0.427 11.987 0.72 12.28 C 1.013 12.573 1.487 12.573 1.78 12.28 L 12.28 1.78 Z" fill="currentColor" fill-rule="evenodd"></path>
</svg>