<svg xmlns="http://www.w3.org/2000/svg" width="14" height="14" viewBox="0 0 14 14" fill="none">
  <path d="M 9 3.5 C 9 4.605 8.105 5.5 7 5.5 C 5.895 5.5 5 4.605 5 3.5 C 5 2.395 5.895 1.5 7 1.5 C 8.105 1.5 9 2.395 9 3.5 Z M 10.5 3.5 C 10.5 5.433 8.933 7 7 7 C 5.067 7 3.5 5.433 3.5 3.5 C 3.5 1.567 5.067 0 7 0 C 8.933 0 10.5 1.567 10.5 3.5 Z M 1.5 11.5 C 1.5 11.295 1.72 10.691 2.82 10.041 C 3.838 9.44 5.32 9 7 9 C 8.68 9 10.162 9.44 11.18 10.041 C 12.28 10.691 12.5 11.295 12.5 11.5 C 12.5 12.052 12.052 12.5 11.5 12.5 L 2.5 12.5 C 1.948 12.5 1.5 12.052 1.5 11.5 Z M 7 7.5 C 3.15 7.5 0 9.5 0 11.5 C 0 12.881 1.119 14 2.5 14 L 11.5 14 C 12.881 14 14 12.881 14 11.5 C 14 9.5 10.85 7.5 7 7.5 Z" fill="currentColor" fill-rule="evenodd"></path>
</svg>