<svg xmlns="http://www.w3.org/2000/svg" width="12.500" height="15.750" viewBox="0 0 12.500 15.750" fill="none">
  <path d="M 8.75 2.255 L 8.75 2.25 L 8.75 2.245 C 8.753 2.215 8.763 2.088 8.388 1.894 C 7.953 1.669 7.217 1.5 6.25 1.5 C 5.283 1.5 4.547 1.669 4.112 1.894 C 3.737 2.088 3.747 2.215 3.75 2.245 L 3.75 2.25 L 3.75 2.255 C 3.747 2.285 3.737 2.412 4.112 2.606 C 4.547 2.831 5.283 3 6.25 3 C 7.217 3 7.953 2.831 8.388 2.606 C 8.763 2.412 8.753 2.285 8.75 2.255 Z M 6.25 4.5 C 6.756 4.5 7.241 4.461 7.686 4.382 L 8.526 6.734 L 8.779 7.441 L 9.496 7.662 C 10.144 7.863 10.551 8.102 10.773 8.311 C 10.965 8.491 11 8.622 11 8.75 C 11 8.89 10.945 9.238 10.063 9.628 C 9.194 10.012 7.863 10.25 6.25 10.25 C 4.637 10.25 3.306 10.012 2.437 9.628 C 1.555 9.238 1.5 8.89 1.5 8.75 C 1.5 8.622 1.535 8.491 1.727 8.311 C 1.949 8.102 2.356 7.863 3.004 7.662 L 3.721 7.441 L 3.974 6.734 L 4.814 4.382 C 5.259 4.461 5.744 4.5 6.25 4.5 Z M 10.25 2.25 C 10.25 2.988 9.817 3.544 9.114 3.919 L 9.939 6.229 C 11.492 6.709 12.5 7.549 12.5 8.75 C 12.5 10.603 10.098 11.597 7 11.734 L 7 15 C 7 15.414 6.664 15.75 6.25 15.75 C 5.836 15.75 5.5 15.414 5.5 15 L 5.5 11.734 C 2.402 11.597 0 10.603 0 8.75 C 0 7.549 1.008 6.709 2.561 6.229 L 3.386 3.919 C 2.683 3.544 2.25 2.988 2.25 2.25 C 2.25 0.75 4.041 0 6.25 0 C 8.459 0 10.25 0.75 10.25 2.25 Z" fill="currentColor" fill-rule="evenodd"></path>
</svg>