<svg xmlns="http://www.w3.org/2000/svg" width="16" height="16" viewBox="0 0 16 16"><path d="M 6.555 1.999 L 1.638 10.505 C 1.253 11.171 1.734 12.005 2.504 12.005 L 12.338 12.005 C 13.108 12.005 13.589 11.171 13.203 10.505 L 8.286 1.999 C 7.901 1.333 6.94 1.334 6.555 1.999 Z M 9.585 1.249 C 8.622 -0.416 6.219 -0.416 5.256 1.249 L 0.339 9.754 C -0.624 11.42 0.579 13.505 2.504 13.505 L 12.338 13.505 C 14.263 13.505 15.466 11.42 14.502 9.754 L 9.585 1.249 Z" transform="matrix(0 1 -1 0 16.005 0.579)" fill="currentColor" fill-rule="evenodd"></path><path d="M 9.585 1.249 C 8.622 -0.416 6.219 -0.416 5.256 1.249 L 0.339 9.754 C -0.624 11.42 0.579 13.505 2.504 13.505 L 12.338 13.505 C 14.263 13.505 15.466 11.42 14.502 9.754 L 9.585 1.249 Z" transform="matrix(0 1 -1 0 16.005 0.579)" fill="currentColor" fill-rule="evenodd"></path></svg>