<svg xmlns="http://www.w3.org/2000/svg" width="16" height="16" viewBox="0 0 16 16"><path d="M 6.25 0 C 6.664 0 7 0.336 7 0.75 L 7 5.5 L 11.75 5.5 C 12.164 5.5 12.5 5.836 12.5 6.25 C 12.5 6.664 12.164 7 11.75 7 L 7 7 L 7 11.75 C 7 12.164 6.664 12.5 6.25 12.5 C 5.836 12.5 5.5 12.164 5.5 11.75 L 5.5 7 L 0.75 7 C 0.336 7 0 6.664 0 6.25 C 0 5.836 0.336 5.5 0.75 5.5 L 5.5 5.5 L 5.5 0.75 C 5.5 0.336 5.836 0 6.25 0 Z" transform="translate(1.75 1.75)" fill="currentColor" fill-rule="evenodd"></path></svg>