<svg xmlns="http://www.w3.org/2000/svg" width="16" height="14" viewBox="0 0 16 14" fill="none">
  <path d="M 10.75 1.5 L 5.25 1.5 C 4.836 1.5 4.5 1.836 4.5 2.25 L 4.5 3 L 11.5 3 L 11.5 2.25 C 11.5 1.836 11.164 1.5 10.75 1.5 Z M 13 3 L 13 2.25 C 13 1.007 11.993 0 10.75 0 L 5.25 0 C 4.007 0 3 1.007 3 2.25 L 3 3 C 1.343 3 0 4.343 0 6 L 0 8 C 0 9.657 1.343 11 3 11 L 4 11 L 4 12 C 4 13.105 4.895 14 6 14 L 10 14 C 11.105 14 12 13.105 12 12 L 12 11 L 13 11 C 14.657 11 16 9.657 16 8 L 16 6 C 16 4.343 14.657 3 13 3 Z M 4 9 L 4 9.5 L 3 9.5 C 2.172 9.5 1.5 8.828 1.5 8 L 1.5 6 C 1.5 5.172 2.172 4.5 3 4.5 L 13 4.5 C 13.828 4.5 14.5 5.172 14.5 6 L 14.5 8 C 14.5 8.828 13.828 9.5 13 9.5 L 12 9.5 L 12 9 C 12 7.895 11.105 7 10 7 L 6 7 C 4.895 7 4 7.895 4 9 Z M 10 8.5 L 6 8.5 C 5.724 8.5 5.5 8.724 5.5 9 L 5.5 12 C 5.5 12.276 5.724 12.5 6 12.5 L 10 12.5 C 10.276 12.5 10.5 12.276 10.5 12 L 10.5 9 C 10.5 8.724 10.276 8.5 10 8.5 Z M 12.5 7.5 C 13.052 7.5 13.5 7.052 13.5 6.5 C 13.5 5.948 13.052 5.5 12.5 5.5 C 11.948 5.5 11.5 5.948 11.5 6.5 C 11.5 7.052 11.948 7.5 12.5 7.5 Z" fill="currentColor" fill-rule="evenodd"></path>
</svg>