<svg xmlns="http://www.w3.org/2000/svg" width="13" height="13" viewBox="0 0 13 13" fill="none">
  <path d="M 7.25 0.75 C 7.25 0.336 6.914 0 6.5 0 C 6.086 0 5.75 0.336 5.75 0.75 L 5.75 5.75 L 0.75 5.75 C 0.336 5.75 0 6.086 0 6.5 C 0 6.914 0.336 7.25 0.75 7.25 L 6.25 7.25 C 6.802 7.25 7.25 6.802 7.25 6.25 L 7.25 0.75 Z M 5.75 9.5 C 5.75 8.948 6.198 8.5 6.75 8.5 L 9.5 8.5 C 9.914 8.5 10.25 8.836 10.25 9.25 C 10.25 9.664 9.914 10 9.5 10 L 7.25 10 L 7.25 12.25 C 7.25 12.664 6.914 13 6.5 13 C 6.086 13 5.75 12.664 5.75 12.25 L 5.75 9.5 Z M 11.5 11.5 L 9.25 11.5 C 8.836 11.5 8.5 11.836 8.5 12.25 C 8.5 12.664 8.836 13 9.25 13 L 12 13 C 12.552 13 13 12.552 13 12 L 13 6.75 C 13 6.198 12.552 5.75 12 5.75 L 9.25 5.75 C 8.836 5.75 8.5 6.086 8.5 6.5 C 8.5 6.914 8.836 7.25 9.25 7.25 L 11.5 7.25 L 11.5 11.5 Z M 1.5 3 L 1.5 1.5 L 3 1.5 L 3 3 L 1.5 3 Z M 0 1 C 0 0.448 0.448 0 1 0 L 3.5 0 C 4.052 0 4.5 0.448 4.5 1 L 4.5 3.5 C 4.5 4.052 4.052 4.5 3.5 4.5 L 1 4.5 C 0.448 4.5 0 4.052 0 3.5 L 0 1 Z M 1.5 10 L 1.5 11.5 L 3 11.5 L 3 10 L 1.5 10 Z M 1 8.5 C 0.448 8.5 0 8.948 0 9.5 L 0 12 C 0 12.552 0.448 13 1 13 L 3.5 13 C 4.052 13 4.5 12.552 4.5 12 L 4.5 9.5 C 4.5 8.948 4.052 8.5 3.5 8.5 L 1 8.5 Z M 10 3 L 10 1.5 L 11.5 1.5 L 11.5 3 L 10 3 Z M 8.5 1 C 8.5 0.448 8.948 0 9.5 0 L 12 0 C 12.552 0 13 0.448 13 1 L 13 3.5 C 13 4.052 12.552 4.5 12 4.5 L 9.5 4.5 C 8.948 4.5 8.5 4.052 8.5 3.5 L 8.5 1 Z" fill="currentColor" fill-rule="evenodd"></path>
</svg>