<svg xmlns="http://www.w3.org/2000/svg" width="15" height="12" viewBox="0 0 15 12" fill="none">
  <path d="M 13.5 4.3 L 15 1.9 L 13.5 0 L 1.689 0 L 0 0 L 0.776 1.5 L 1.5 2.9 L 0 5.3 L 1.5 7.7 L 0 10.1 L 1.5 12 L 13.311 12 L 15 12 L 14.224 10.5 L 13.5 9.1 L 15 6.7 L 13.5 4.3 Z M 13.231 6.7 L 12.228 5.095 L 11.731 4.3 L 12.228 3.505 L 13.168 2.001 L 12.773 1.5 L 2.465 1.5 L 2.832 2.211 L 3.225 2.97 L 2.772 3.695 L 1.769 5.3 L 2.772 6.905 L 3.269 7.7 L 2.772 8.495 L 1.832 9.999 L 2.227 10.5 L 12.535 10.5 L 12.168 9.789 L 11.775 9.03 L 12.228 8.305 L 13.231 6.7 Z M 9 3 C 9.414 3 9.75 3.336 9.75 3.75 L 9.75 8.25 C 9.75 8.664 9.414 9 9 9 C 8.586 9 8.25 8.664 8.25 8.25 L 8.25 3.75 C 8.25 3.336 8.586 3 9 3 Z M 6.75 3.75 C 6.75 3.336 6.414 3 6 3 C 5.586 3 5.25 3.336 5.25 3.75 L 5.25 6.25 C 5.25 6.664 5.586 7 6 7 C 6.414 7 6.75 6.664 6.75 6.25 L 6.75 3.75 Z" fill="currentColor" fill-rule="evenodd"></path>
</svg>