<svg xmlns="http://www.w3.org/2000/svg" width="12.951" height="13" viewBox="0 0 12.951 13" fill="none">
  <path d="M 6.5 0 C 2.91 0 0 2.91 0 6.5 C 0 10.09 2.91 13 6.5 13 C 9.803 13 12.529 10.538 12.945 7.348 C 12.999 6.938 12.709 6.561 12.298 6.508 C 11.888 6.454 11.511 6.744 11.458 7.154 C 11.138 9.606 9.039 11.5 6.5 11.5 C 3.739 11.5 1.5 9.261 1.5 6.5 C 1.5 3.739 3.739 1.5 6.5 1.5 C 7.898 1.5 9.163 2.073 10.071 3 L 8.75 3 C 8.336 3 8 3.336 8 3.75 C 8 4.164 8.336 4.5 8.75 4.5 L 11.75 4.5 C 12.164 4.5 12.5 4.164 12.5 3.75 L 12.5 0.75 C 12.5 0.336 12.164 0 11.75 0 C 11.336 0 11 0.336 11 0.75 L 11 1.81 C 9.833 0.69 8.247 0 6.5 0 Z" fill="currentColor" fill-rule="evenodd"></path>
</svg>