<svg xmlns="http://www.w3.org/2000/svg" width="12" height="20.557" viewBox="0 0 12 20.557" fill="none">
  <path d="M 6.451 0.15 C 6.196 -0.041 5.837 -0.055 5.564 0.14 C 3.187 1.837 1.968 4.728 2.41 7.615 L 2.45 7.874 L 0.697 9.786 C 0.591 9.902 0.524 10.049 0.505 10.205 L 0.005 14.455 C -0.027 14.725 0.09 14.991 0.31 15.15 C 0.529 15.309 0.818 15.338 1.064 15.224 L 4.305 13.728 C 4.974 13.446 5.501 13.325 6 13.325 C 6.499 13.325 7.026 13.446 7.695 13.728 L 10.936 15.224 C 11.182 15.338 11.471 15.309 11.691 15.15 C 11.91 14.991 12.027 14.725 11.995 14.455 L 11.495 10.205 C 11.476 10.049 11.409 9.902 11.303 9.786 L 9.55 7.874 L 9.59 7.615 C 10.031 4.734 8.818 1.85 6.451 0.15 Z M 1.967 10.621 L 2.741 9.776 L 3.173 12.599 L 1.651 13.301 L 1.967 10.621 Z M 10.349 13.301 L 8.827 12.599 L 9.259 9.776 L 10.033 10.621 L 10.349 13.301 Z M 6 1.702 C 4.373 3.097 3.564 5.244 3.893 7.388 L 4.604 12.031 C 5.072 11.897 5.531 11.825 6 11.825 C 6.469 11.825 6.928 11.897 7.396 12.031 L 8.107 7.388 C 8.436 5.244 7.627 3.097 6 1.702 Z M 6.233 18.306 C 6.159 18.412 6.081 18.514 6.004 18.609 C 5.929 18.517 5.854 18.418 5.781 18.315 C 5.438 17.825 5.272 17.39 5.272 17.061 C 5.272 16.715 5.568 16.376 6.007 16.376 C 6.446 16.376 6.743 16.715 6.743 17.061 C 6.743 17.377 6.58 17.809 6.233 18.306 Z M 5.681 20.437 C 5.506 20.281 5.189 19.981 4.864 19.585 C 4.33 18.935 3.772 18.025 3.772 17.061 C 3.772 15.855 4.773 14.876 6.007 14.876 C 7.242 14.876 8.243 15.855 8.243 17.061 C 8.243 18.591 6.798 20.017 6.335 20.435 C 6.245 20.516 6.128 20.557 6.006 20.557 C 5.886 20.557 5.77 20.517 5.681 20.437 Z" fill="currentColor" fill-rule="evenodd"></path>
</svg>