<svg xmlns="http://www.w3.org/2000/svg" width="13" height="13" viewBox="0 0 13 13" fill="none">
  <path d="M 1.5 10 C 1.5 10.828 2.172 11.5 3 11.5 L 3 9 C 3 7.895 3.895 7 5 7 L 8 7 C 9.105 7 10 7.895 10 9 L 10 11.5 C 10.828 11.5 11.5 10.828 11.5 10 L 11.5 4.536 C 11.5 4.27 11.395 4.016 11.207 3.828 L 9.172 1.793 C 8.984 1.605 8.73 1.5 8.464 1.5 L 4.5 1.5 L 4.5 2.5 C 4.5 2.776 4.724 3 5 3 L 8 3 C 8.414 3 8.75 3.336 8.75 3.75 C 8.75 4.164 8.414 4.5 8 4.5 L 5 4.5 C 3.895 4.5 3 3.605 3 2.5 L 3 1.5 C 2.172 1.5 1.5 2.172 1.5 3 L 1.5 10 Z M 0 10 C 0 11.657 1.343 13 3 13 L 4.5 13 L 8.5 13 L 10 13 C 11.657 13 13 11.657 13 10 L 13 4.536 C 13 3.872 12.737 3.237 12.268 2.768 L 10.232 0.732 C 9.763 0.263 9.128 0 8.464 0 L 3 0 C 1.343 0 0 1.343 0 3 L 0 10 Z M 8.5 9 L 8.5 11.5 L 4.5 11.5 L 4.5 9 C 4.5 8.724 4.724 8.5 5 8.5 L 8 8.5 C 8.276 8.5 8.5 8.724 8.5 9 Z" fill="currentColor" fill-rule="evenodd"></path>
</svg>