<svg xmlns="http://www.w3.org/2000/svg" width="15.314" height="15.314" viewBox="0 0 15.314 15.314" fill="none">
  <path d="M 5.172 3.157 L 5.793 3.157 L 6.232 2.718 L 7.303 1.646 C 7.499 1.451 7.815 1.451 8.01 1.646 L 9.081 2.718 L 9.521 3.157 L 10.142 3.157 L 11.657 3.157 C 11.933 3.157 12.157 3.381 12.157 3.657 L 12.157 5.172 L 12.157 5.793 L 12.596 6.232 L 13.667 7.303 C 13.863 7.499 13.863 7.815 13.667 8.01 L 12.596 9.081 L 12.157 9.521 L 12.157 10.142 L 12.157 11.657 C 12.157 11.933 11.933 12.157 11.657 12.157 L 10.142 12.157 L 9.521 12.157 L 9.081 12.596 L 8.01 13.667 C 7.815 13.863 7.499 13.863 7.303 13.667 L 6.232 12.596 L 5.793 12.157 L 5.172 12.157 L 3.657 12.157 C 3.381 12.157 3.157 11.933 3.157 11.657 L 3.157 10.142 L 3.157 9.521 L 2.718 9.081 L 1.646 8.01 C 1.451 7.815 1.451 7.499 1.646 7.303 L 2.718 6.232 L 3.157 5.793 L 3.157 5.172 L 3.157 3.657 C 3.157 3.381 3.381 3.157 3.657 3.157 L 5.172 3.157 Z M 9.071 0.586 C 8.29 -0.195 7.024 -0.195 6.243 0.586 L 5.172 1.657 L 3.657 1.657 C 2.552 1.657 1.657 2.552 1.657 3.657 L 1.657 5.172 L 0.586 6.243 C -0.195 7.024 -0.195 8.29 0.586 9.071 L 1.657 10.142 L 1.657 11.657 C 1.657 12.761 2.552 13.657 3.657 13.657 L 5.172 13.657 L 6.243 14.728 C 7.024 15.509 8.29 15.509 9.071 14.728 L 10.142 13.657 L 11.657 13.657 C 12.761 13.657 13.657 12.761 13.657 11.657 L 13.657 10.142 L 14.728 9.071 C 15.509 8.29 15.509 7.024 14.728 6.243 L 13.657 5.172 L 13.657 3.657 C 13.657 2.552 12.761 1.657 11.657 1.657 L 10.142 1.657 L 9.071 0.586 Z M 10.757 6.107 C 11.005 5.775 10.938 5.305 10.607 5.057 C 10.276 4.808 9.805 4.875 9.557 5.207 L 7.076 8.515 L 5.687 7.127 C 5.394 6.834 4.919 6.834 4.627 7.127 C 4.334 7.419 4.334 7.894 4.627 8.187 L 6.627 10.187 C 6.78 10.341 6.993 10.42 7.21 10.405 C 7.427 10.39 7.626 10.281 7.757 10.107 L 10.757 6.107 Z" fill="currentColor" fill-rule="evenodd"></path>
</svg>