<svg xmlns="http://www.w3.org/2000/svg" width="16" height="16" viewBox="0 0 16 16"><path d="M 10.5 6 C 10.5 8.485 8.485 10.5 6 10.5 C 3.515 10.5 1.5 8.485 1.5 6 C 1.5 3.515 3.515 1.5 6 1.5 C 8.485 1.5 10.5 3.515 10.5 6 Z M 9.679 10.74 C 8.663 11.53 7.387 12 6 12 C 2.686 12 0 9.314 0 6 C 0 2.686 2.686 0 6 0 C 9.314 0 12 2.686 12 6 C 12 7.387 11.53 8.663 10.74 9.679 L 13.53 12.47 C 13.823 12.763 13.823 13.237 13.53 13.53 C 13.237 13.823 12.763 13.823 12.47 13.53 L 9.679 10.74 Z" transform="translate(1 1)" fill="currentColor" fill-rule="evenodd"></path></svg>