<svg xmlns="http://www.w3.org/2000/svg" width="15.599" height="13" viewBox="0 0 15.599 13" fill="none">
  <path d="M 8.599 7.5 L 8.599 10.165 C 8.599 10.35 8.749 10.5 8.935 10.5 C 9.013 10.5 9.089 10.472 9.15 10.422 L 13.871 6.488 C 14.016 6.367 14.099 6.188 14.099 6 C 14.099 5.812 14.016 5.633 13.871 5.512 L 9.15 1.578 C 9.089 1.528 9.013 1.5 8.935 1.5 C 8.749 1.5 8.599 1.65 8.599 1.835 L 8.599 4.5 L 7.099 4.5 C 5.516 4.5 3.918 5.071 2.859 6.192 C 1.96 7.143 1.31 8.638 1.549 10.915 C 2.198 9.889 2.914 9.078 3.75 8.502 C 4.798 7.779 5.923 7.5 7.099 7.5 L 8.599 7.5 Z M 5.599 9.231 C 4.438 9.627 3.435 10.568 2.449 12.337 C 2.226 12.738 1.81 13 1.351 13 C 0.799 13 0.311 12.625 0.208 12.083 C -0.998 5.737 3.279 3 7.099 3 L 7.099 1.835 C 7.099 0.822 7.921 0 8.935 0 C 9.364 0 9.78 0.151 10.11 0.425 L 14.831 4.36 C 15.318 4.765 15.599 5.366 15.599 6 C 15.599 6.634 15.318 7.235 14.831 7.64 L 10.11 11.575 C 9.78 11.849 9.364 12 8.935 12 C 7.921 12 7.099 11.178 7.099 10.165 L 7.099 9 C 6.567 9 6.07 9.071 5.599 9.231 Z" fill="currentColor" fill-rule="evenodd"></path>
</svg>