<svg xmlns="http://www.w3.org/2000/svg" width="14" height="14.500" viewBox="0 0 14 14.500" fill="none">
  <path d="M 2.003 3.702 L 6.223 1.677 C 6.465 1.56 6.731 1.5 7 1.5 C 7.269 1.5 7.535 1.56 7.777 1.677 L 11.997 3.702 C 12.304 3.85 12.5 4.161 12.5 4.502 L 12.5 5 C 12.5 7.915 11.014 10.63 8.559 12.201 L 7.573 12.832 C 7.402 12.942 7.203 13 7 13 C 6.797 13 6.598 12.942 6.427 12.832 L 5.441 12.201 C 2.986 10.63 1.5 7.915 1.5 5 L 1.5 4.502 C 1.5 4.161 1.696 3.85 2.003 3.702 Z M 5.574 0.325 L 1.354 2.35 C 0.526 2.747 0 3.584 0 4.502 L 0 5 C 0 8.427 1.746 11.618 4.632 13.465 L 5.618 14.096 C 6.031 14.36 6.51 14.5 7 14.5 C 7.49 14.5 7.969 14.36 8.382 14.096 L 9.368 13.465 C 12.254 11.618 14 8.427 14 5 L 14 4.502 C 14 3.584 13.474 2.747 12.646 2.35 L 8.426 0.325 C 7.981 0.111 7.494 0 7 0 C 6.506 0 6.019 0.111 5.574 0.325 Z M 7.47 8.97 C 7.177 9.263 7.177 9.737 7.47 10.03 C 7.763 10.323 8.237 10.323 8.53 10.03 C 9.105 9.456 9.648 8.632 10.046 7.835 C 10.432 7.063 10.75 6.182 10.75 5.5 C 10.75 5.086 10.414 4.75 10 4.75 C 9.586 4.75 9.25 5.086 9.25 5.5 C 9.25 5.818 9.068 6.437 8.704 7.165 C 8.352 7.868 7.895 8.544 7.47 8.97 Z" fill="currentColor" fill-rule="evenodd"></path>
</svg>