<svg xmlns="http://www.w3.org/2000/svg" width="14" height="14.500" viewBox="0 0 14 14.500" fill="none">
  <path d="M 2.003 3.702 L 6.223 1.677 C 6.465 1.56 6.731 1.5 7 1.5 C 7.269 1.5 7.535 1.56 7.777 1.677 L 11.997 3.702 C 12.304 3.85 12.5 4.161 12.5 4.502 L 12.5 5 C 12.5 7.915 11.014 10.63 8.559 12.201 L 7.573 12.832 C 7.402 12.942 7.203 13 7 13 C 6.797 13 6.598 12.942 6.427 12.832 L 5.441 12.201 C 2.986 10.63 1.5 7.915 1.5 5 L 1.5 4.502 C 1.5 4.161 1.696 3.85 2.003 3.702 Z M 5.574 0.325 L 1.354 2.35 C 0.526 2.747 0 3.584 0 4.502 L 0 5 C 0 8.427 1.746 11.618 4.632 13.465 L 5.618 14.096 C 6.031 14.36 6.51 14.5 7 14.5 C 7.49 14.5 7.969 14.36 8.382 14.096 L 9.368 13.465 C 12.254 11.618 14 8.427 14 5 L 14 4.502 C 14 3.584 13.474 2.747 12.646 2.35 L 8.426 0.325 C 7.981 0.111 7.494 0 7 0 C 6.506 0 6.019 0.111 5.574 0.325 Z M 10.1 5.45 C 10.349 5.119 10.281 4.649 9.95 4.4 C 9.619 4.151 9.149 4.219 8.9 4.55 L 6.419 7.858 L 5.03 6.47 C 4.737 6.177 4.263 6.177 3.97 6.47 C 3.677 6.763 3.677 7.237 3.97 7.53 L 5.97 9.53 C 6.123 9.684 6.336 9.764 6.553 9.748 C 6.77 9.733 6.97 9.624 7.1 9.45 L 10.1 5.45 Z" fill="currentColor" fill-rule="evenodd"></path>
</svg>