<svg xmlns="http://www.w3.org/2000/svg" width="13.269" height="13" viewBox="0 0 13.269 13" fill="none">
  <path d="M 3.808 1.5 L 9.461 1.5 C 10.222 1.5 10.863 2.071 10.951 2.828 L 11.758 9.828 C 11.861 10.719 11.165 11.5 10.268 11.5 L 3 11.5 C 2.104 11.5 1.408 10.719 1.51 9.828 L 2.318 2.828 C 2.405 2.071 3.046 1.5 3.808 1.5 Z M 0.828 2.656 C 1.003 1.142 2.284 0 3.808 0 L 9.461 0 C 10.984 0 12.266 1.142 12.441 2.656 L 13.248 9.656 C 13.454 11.437 12.061 13 10.268 13 L 3 13 C 1.207 13 -0.185 11.437 0.02 9.656 L 0.828 2.656 Z M 3.634 3.75 C 3.634 3.336 3.97 3 4.384 3 C 4.798 3 5.134 3.336 5.134 3.75 L 5.134 4 C 5.134 4.828 5.806 5.5 6.634 5.5 C 7.463 5.5 8.134 4.828 8.134 4 L 8.134 3.75 C 8.134 3.336 8.47 3 8.884 3 C 9.298 3 9.634 3.336 9.634 3.75 L 9.634 4 C 9.634 5.657 8.291 7 6.634 7 C 4.977 7 3.634 5.657 3.634 4 L 3.634 3.75 Z" fill="currentColor" fill-rule="evenodd"></path>
</svg>