<svg xmlns="http://www.w3.org/2000/svg" width="15.000" height="13.750" viewBox="0 0 15.000 13.750" fill="none">
  <path d="M 3.018 2.068 L 3.395 3.5 L 4.58 8.005 C 5.058 9.822 7.068 10.757 8.766 9.953 L 13.284 7.813 C 14.332 7.316 15 6.261 15 5.102 L 15 4 C 15 2.895 14.104 2 13 2 L 4.556 2 L 4.407 1.465 C 4.166 0.599 3.378 0 2.48 0 L 0.75 0 C 0.336 0 0 0.336 0 0.75 C 0 1.164 0.336 1.5 0.75 1.5 L 2.48 1.5 C 2.704 1.5 2.901 1.65 2.962 1.866 L 3.018 2.068 Z M 8.124 8.597 L 12.642 6.457 C 13.166 6.209 13.5 5.681 13.5 5.102 L 13.5 4 C 13.5 3.724 13.276 3.5 13 3.5 L 4.946 3.5 L 6.031 7.624 C 6.27 8.532 7.275 8.999 8.124 8.597 Z M 12 13.75 C 12.966 13.75 13.75 12.966 13.75 12 C 13.75 11.034 12.966 10.25 12 10.25 C 11.034 10.25 10.25 11.034 10.25 12 C 10.25 12.966 11.034 13.75 12 13.75 Z M 4.75 12 C 4.75 12.966 3.966 13.75 3 13.75 C 2.034 13.75 1.25 12.966 1.25 12 C 1.25 11.034 2.034 10.25 3 10.25 C 3.966 10.25 4.75 11.034 4.75 12 Z" fill="currentColor" fill-rule="evenodd"></path>
</svg>