<svg xmlns="http://www.w3.org/2000/svg" width="14.003" height="12" viewBox="0 0 14.003 12" fill="none">
  <path d="M 6.503 3 C 6.503 3.828 5.831 4.5 5.003 4.5 C 4.174 4.5 3.503 3.828 3.503 3 C 3.503 2.172 4.174 1.5 5.003 1.5 C 5.831 1.5 6.503 2.172 6.503 3 Z M 7.908 3.75 C 7.575 5.044 6.401 6 5.003 6 C 3.605 6 2.43 5.044 2.097 3.75 L 0.75 3.75 C 0.336 3.75 0 3.414 0 3 C 0 2.586 0.336 2.25 0.75 2.25 L 2.097 2.25 C 2.43 0.956 3.605 0 5.003 0 C 6.401 0 7.575 0.956 7.908 2.25 L 13.253 2.25 C 13.667 2.25 14.003 2.586 14.003 3 C 14.003 3.414 13.667 3.75 13.253 3.75 L 7.908 3.75 Z M 0.75 8.25 L 6.095 8.25 C 6.428 6.956 7.602 6 9 6 C 10.398 6 11.573 6.956 11.906 8.25 L 13.253 8.25 C 13.667 8.25 14.003 8.586 14.003 9 C 14.003 9.414 13.667 9.75 13.253 9.75 L 11.906 9.75 C 11.573 11.044 10.398 12 9 12 C 7.602 12 6.428 11.044 6.095 9.75 L 0.75 9.75 C 0.336 9.75 0 9.414 0 9 C 0 8.586 0.336 8.25 0.75 8.25 Z M 9 7.5 C 8.172 7.5 7.5 8.172 7.5 9 C 7.5 9.828 8.172 10.5 9 10.5 C 9.829 10.5 10.5 9.828 10.5 9 C 10.5 8.172 9.829 7.5 9 7.5 Z" fill="currentColor" fill-rule="evenodd"></path>
</svg>