<svg xmlns="http://www.w3.org/2000/svg" width="15" height="11" viewBox="0 0 15 11" fill="none">
  <path d="M 3 1.5 L 12 1.5 C 12.828 1.5 13.5 2.172 13.5 3 L 13.5 8 C 13.5 8.828 12.828 9.5 12 9.5 L 3 9.5 C 2.172 9.5 1.5 8.828 1.5 8 L 1.5 3 C 1.5 2.172 2.172 1.5 3 1.5 Z M 0 3 C 0 1.343 1.343 0 3 0 L 12 0 C 13.657 0 15 1.343 15 3 L 15 8 C 15 9.657 13.657 11 12 11 L 3 11 C 1.343 11 0 9.657 0 8 L 0 3 Z M 10.5 7.25 C 10.5 7.664 10.836 8 11.25 8 C 11.664 8 12 7.664 12 7.25 L 12 3.75 C 12 3.336 11.664 3 11.25 3 C 10.836 3 10.5 3.336 10.5 3.75 L 10.5 7.25 Z" fill="currentColor" fill-rule="evenodd"></path>
</svg>