<svg xmlns="http://www.w3.org/2000/svg" width="16" height="16" viewBox="0 0 16 16"><path d="M 10 1.5 L 3 1.5 C 2.172 1.5 1.5 2.172 1.5 3 L 1.5 10 C 1.5 10.828 2.172 11.5 3 11.5 L 10 11.5 C 10.828 11.5 11.5 10.828 11.5 10 L 11.5 3 C 11.5 2.172 10.828 1.5 10 1.5 Z M 3 0 C 1.343 0 0 1.343 0 3 L 0 10 C 0 11.657 1.343 13 3 13 L 10 13 C 11.657 13 13 11.657 13 10 L 13 3 C 13 1.343 11.657 0 10 0 L 3 0 Z" transform="translate(1.5 1.5)" fill="currentColor" fill-rule="evenodd"></path><path d="M 3 0 C 1.343 0 0 1.343 0 3 L 0 10 C 0 11.657 1.343 13 3 13 L 10 13 C 11.657 13 13 11.657 13 10 L 13 3 C 13 1.343 11.657 0 10 0 L 3 0 Z" transform="translate(1.5 1.5)" fill="currentColor" fill-rule="evenodd"></path></svg>