<svg xmlns="http://www.w3.org/2000/svg" width="15.300" height="14.669" viewBox="0 0 15.300 14.669" fill="none">
  <path d="M 8.844 4.979 L 9.195 5.853 L 10.135 5.917 L 13.332 6.134 L 10.873 8.188 L 10.15 8.792 L 10.38 9.705 L 11.162 12.813 L 8.447 11.109 L 7.65 10.609 L 6.852 11.109 L 4.138 12.813 L 4.92 9.705 L 5.15 8.792 L 4.427 8.188 L 1.967 6.134 L 5.165 5.917 L 6.105 5.853 L 6.455 4.979 L 7.65 2.005 L 8.844 4.979 Z M 1.121 4.687 L 5.064 4.42 L 6.536 0.753 C 6.939 -0.251 8.36 -0.251 8.763 0.753 L 10.236 4.42 L 14.179 4.687 C 15.258 4.761 15.697 6.112 14.867 6.806 L 11.834 9.339 L 12.799 13.172 C 13.062 14.221 11.913 15.056 10.997 14.481 L 7.65 12.38 L 4.303 14.481 C 3.387 15.056 2.237 14.221 2.501 13.172 L 3.465 9.339 L 0.432 6.806 C -0.398 6.112 0.041 4.761 1.121 4.687 Z" fill="currentColor" fill-rule="evenodd"></path>
</svg>