<svg xmlns="http://www.w3.org/2000/svg" width="16" height="16" viewBox="0 0 16 16" fill="none">
  <path d="M 8 3 C 7.586 3 7.25 2.664 7.25 2.25 L 7.25 0.75 C 7.25 0.336 7.586 0 8 0 C 8.414 0 8.75 0.336 8.75 0.75 L 8.75 2.25 C 8.75 2.664 8.414 3 8 3 Z M 8 10.5 C 9.381 10.5 10.5 9.381 10.5 8 C 10.5 6.619 9.381 5.5 8 5.5 C 6.619 5.5 5.5 6.619 5.5 8 C 5.5 9.381 6.619 10.5 8 10.5 Z M 8 12 C 10.209 12 12 10.209 12 8 C 12 5.791 10.209 4 8 4 C 5.791 4 4 5.791 4 8 C 4 10.209 5.791 12 8 12 Z M 7.25 15.25 C 7.25 15.664 7.586 16 8 16 C 8.414 16 8.75 15.664 8.75 15.25 L 8.75 13.75 C 8.75 13.336 8.414 13 8 13 C 7.586 13 7.25 13.336 7.25 13.75 L 7.25 15.25 Z M 13 8 C 13 7.586 13.336 7.25 13.75 7.25 L 15.25 7.25 C 15.664 7.25 16 7.586 16 8 C 16 8.414 15.664 8.75 15.25 8.75 L 13.75 8.75 C 13.336 8.75 13 8.414 13 8 Z M 0.75 7.25 C 0.336 7.25 0 7.586 0 8 C 0 8.414 0.336 8.75 0.75 8.75 L 2.25 8.75 C 2.664 8.75 3 8.414 3 8 C 3 7.586 2.664 7.25 2.25 7.25 L 0.75 7.25 Z M 11.536 4.464 C 11.243 4.172 11.243 3.697 11.536 3.404 L 12.596 2.343 C 12.889 2.05 13.364 2.05 13.657 2.343 C 13.95 2.636 13.95 3.111 13.657 3.404 L 12.596 4.464 C 12.303 4.757 11.828 4.757 11.536 4.464 Z M 2.343 12.596 C 2.05 12.889 2.05 13.364 2.343 13.657 C 2.636 13.95 3.111 13.95 3.404 13.657 L 4.465 12.596 C 4.757 12.303 4.757 11.828 4.465 11.536 C 4.172 11.243 3.697 11.243 3.404 11.536 L 2.343 12.596 Z M 11.536 11.536 C 11.828 11.243 12.303 11.243 12.596 11.536 L 13.657 12.596 C 13.95 12.889 13.95 13.364 13.657 13.657 C 13.364 13.95 12.889 13.95 12.596 13.657 L 11.536 12.596 C 11.243 12.303 11.243 11.828 11.536 11.536 Z M 3.404 2.343 C 3.111 2.05 2.636 2.05 2.343 2.343 C 2.05 2.636 2.05 3.111 2.343 3.404 L 3.404 4.464 C 3.697 4.757 4.172 4.757 4.465 4.464 C 4.757 4.172 4.757 3.697 4.465 3.404 L 3.404 2.343 Z" fill="currentColor" fill-rule="evenodd"></path>
</svg>