<svg xmlns="http://www.w3.org/2000/svg" width="14.465" height="14.480" viewBox="0 0 14.465 14.480" fill="none">
  <path d="M 1.939 7.818 L 6.809 12.687 C 7.197 13.075 7.825 13.078 8.217 12.694 L 12.666 8.324 C 13.06 7.937 13.066 7.304 12.679 6.91 L 7.811 1.949 C 7.529 1.662 7.143 1.5 6.741 1.5 L 2.5 1.5 C 1.948 1.5 1.5 1.948 1.5 2.5 L 1.5 6.757 C 1.5 7.155 1.658 7.537 1.939 7.818 Z M 8.882 0.899 C 8.318 0.324 7.546 0 6.741 0 L 2.5 0 C 1.119 0 0 1.119 0 2.5 L 0 6.757 C 0 7.553 0.316 8.316 0.879 8.879 L 5.748 13.748 C 6.718 14.718 8.289 14.725 9.268 13.764 L 13.717 9.394 C 14.702 8.427 14.716 6.844 13.75 5.859 L 8.882 0.899 Z M 4.5 5.5 C 5.19 5.5 5.75 4.94 5.75 4.25 C 5.75 3.56 5.19 3 4.5 3 C 3.81 3 3.25 3.56 3.25 4.25 C 3.25 4.94 3.81 5.5 4.5 5.5 Z" fill="currentColor" fill-rule="evenodd"></path>
</svg>