<svg xmlns="http://www.w3.org/2000/svg" width="15.569" height="15.584" viewBox="0 0 15.569 15.584" fill="none">
  <path d="M 4.866 6.745 L 8.986 10.865 C 9.277 11.155 9.747 11.158 10.041 10.87 L 13.844 7.145 C 14.14 6.855 14.145 6.381 13.855 6.085 L 9.737 1.876 C 9.502 1.635 9.18 1.5 8.843 1.5 L 5.25 1.5 C 4.836 1.5 4.5 1.836 4.5 2.25 L 4.5 5.861 C 4.5 6.192 4.632 6.51 4.866 6.745 Z M 10.809 0.827 C 10.292 0.298 9.583 0 8.843 0 L 5.25 0 C 4.007 0 3 1.007 3 2.25 L 3 3 L 2.25 3 C 1.007 3 0 4.007 0 5.25 L 0 8.861 C 0 9.59 0.29 10.29 0.805 10.805 L 4.925 14.925 C 5.798 15.798 7.21 15.805 8.091 14.942 L 11.894 11.216 C 12.002 11.11 12.098 10.996 12.18 10.875 L 14.894 8.216 C 15.781 7.347 15.796 5.923 14.927 5.036 L 10.809 0.827 Z M 8.567 12.375 C 8.335 12.267 8.117 12.117 7.925 11.925 L 4.229 8.229 C 4.155 8.243 4.078 8.25 4 8.25 C 3.31 8.25 2.75 7.69 2.75 7 C 2.75 6.705 2.852 6.433 3.023 6.22 C 3.008 6.101 3 5.982 3 5.861 L 3 4.5 L 2.25 4.5 C 1.836 4.5 1.5 4.836 1.5 5.25 L 1.5 8.861 C 1.5 9.192 1.632 9.51 1.866 9.745 L 5.986 13.865 C 6.277 14.155 6.747 14.158 7.041 13.87 L 8.567 12.375 Z M 7 5.25 C 7.69 5.25 8.25 4.69 8.25 4 C 8.25 3.31 7.69 2.75 7 2.75 C 6.31 2.75 5.75 3.31 5.75 4 C 5.75 4.69 6.31 5.25 7 5.25 Z" fill="currentColor" fill-rule="evenodd"></path>
</svg>