<svg xmlns="http://www.w3.org/2000/svg" width="14" height="14" viewBox="0 0 14 14" fill="none">
  <path d="M 7 12.5 C 10.038 12.5 12.5 10.038 12.5 7 C 12.5 3.962 10.038 1.5 7 1.5 C 3.962 1.5 1.5 3.962 1.5 7 C 1.5 10.038 3.962 12.5 7 12.5 Z M 7 14 C 10.866 14 14 10.866 14 7 C 14 3.134 10.866 0 7 0 C 3.134 0 0 3.134 0 7 C 0 10.866 3.134 14 7 14 Z M 7 9.5 C 8.381 9.5 9.5 8.381 9.5 7 C 9.5 5.619 8.381 4.5 7 4.5 C 5.619 4.5 4.5 5.619 4.5 7 C 4.5 8.381 5.619 9.5 7 9.5 Z M 7 11 C 9.209 11 11 9.209 11 7 C 11 4.791 9.209 3 7 3 C 4.791 3 3 4.791 3 7 C 3 9.209 4.791 11 7 11 Z M 7 8 C 7.552 8 8 7.552 8 7 C 8 6.448 7.552 6 7 6 C 6.448 6 6 6.448 6 7 C 6 7.552 6.448 8 7 8 Z" fill="currentColor" fill-rule="evenodd"></path>
</svg>