<svg xmlns="http://www.w3.org/2000/svg" width="13.620" height="14.250" viewBox="0 0 13.620 14.250" fill="none">
  <path d="M 2.75 6 L 5.691 0.959 C 6.037 0.365 6.673 0 7.36 0 C 8.59 0 9.507 1.134 9.249 2.337 L 9 3.5 L 8.679 5 L 10.213 5 L 11.619 5 C 12.941 5 13.9 6.261 13.546 7.535 L 12.667 10.697 C 12.14 12.598 10.305 13.83 8.346 13.6 L 3.25 13 L 2.75 6 Z M 8.521 12.11 L 4.658 11.655 L 4.279 6.355 L 6.987 1.714 C 7.064 1.582 7.206 1.5 7.36 1.5 C 7.635 1.5 7.84 1.754 7.783 2.023 L 7.212 4.686 L 6.823 6.5 L 8.679 6.5 L 11.619 6.5 C 11.949 6.5 12.189 6.815 12.101 7.134 L 11.222 10.296 C 10.892 11.484 9.746 12.254 8.521 12.11 Z M 1.498 6.447 C 1.469 6.033 1.11 5.722 0.697 5.752 C 0.283 5.781 -0.028 6.14 0.002 6.553 L 0.502 13.553 C 0.531 13.967 0.89 14.278 1.303 14.248 C 1.717 14.219 2.028 13.86 1.998 13.447 L 1.498 6.447 Z" fill="currentColor" fill-rule="evenodd"></path>
</svg>