<svg xmlns="http://www.w3.org/2000/svg" width="14.497" height="14.497" viewBox="0 0 14.497 14.497" fill="none">
  <path d="M 10.34 1.567 C 10.722 1.853 10.831 2.356 10.646 2.763 C 10.608 2.846 10.558 2.924 10.496 2.996 C 10.48 3.015 10.463 3.034 10.445 3.052 L 10.248 3.248 C 9.972 3.525 9.972 3.972 10.248 4.248 C 10.525 4.525 10.972 4.525 11.248 4.248 L 11.445 4.052 C 11.463 4.034 11.482 4.017 11.5 4 C 11.572 3.939 11.651 3.889 11.733 3.851 C 12.141 3.666 12.644 3.775 12.93 4.157 L 14.174 5.815 C 14.748 6.582 14.534 7.677 13.712 8.17 C 11.438 9.535 9.535 11.438 8.17 13.712 C 7.677 14.534 6.582 14.748 5.815 14.174 L 4.157 12.93 C 3.775 12.644 3.666 12.141 3.851 11.733 C 3.889 11.651 3.939 11.572 4 11.5 C 4.017 11.482 4.034 11.463 4.052 11.445 L 4.248 11.248 C 4.525 10.972 4.525 10.525 4.248 10.248 C 3.972 9.972 3.525 9.972 3.248 10.248 L 3.052 10.445 C 3.034 10.463 3.015 10.48 2.996 10.496 C 2.924 10.558 2.846 10.608 2.763 10.646 C 2.356 10.831 1.853 10.722 1.567 10.34 L 0.323 8.682 C -0.252 7.915 -0.037 6.82 0.785 6.327 C 3.059 4.962 4.962 3.059 6.327 0.785 C 6.82 -0.037 7.915 -0.252 8.682 0.323 L 10.34 1.567 Z M 7.782 1.523 L 8.983 2.424 C 8.332 3.289 8.401 4.522 9.188 5.309 C 9.975 6.096 11.208 6.165 12.073 5.514 L 12.974 6.715 C 13.015 6.77 12.999 6.849 12.94 6.884 C 10.455 8.375 8.375 10.455 6.884 12.94 C 6.849 12.999 6.77 13.015 6.715 12.974 L 5.514 12.073 C 6.165 11.208 6.096 9.975 5.309 9.188 C 4.522 8.401 3.289 8.332 2.424 8.983 L 1.523 7.782 C 1.482 7.727 1.498 7.648 1.556 7.613 C 4.042 6.122 6.122 4.042 7.613 1.556 C 7.648 1.498 7.727 1.482 7.782 1.523 Z M 6.779 5.718 C 6.486 5.425 6.011 5.425 5.718 5.718 C 5.425 6.011 5.425 6.486 5.718 6.779 L 7.718 8.779 C 8.011 9.072 8.486 9.072 8.779 8.779 C 9.072 8.486 9.072 8.011 8.779 7.718 L 6.779 5.718 Z" fill="currentColor" fill-rule="evenodd"></path>
</svg>