<svg xmlns="http://www.w3.org/2000/svg" width="14.415" height="15" viewBox="0 0 14.415 15" fill="none">
  <path d="M 6.488 10.5 C 5.665 10.506 5 11.175 5 12 C 5 12.828 5.672 13.5 6.5 13.5 C 7.328 13.5 8 12.828 8 12 C 8 11.996 8 11.992 8 11.988 C 7.994 11.165 7.324 10.5 6.5 10.5 C 6.496 10.5 6.492 10.5 6.488 10.5 Z M 9.5 11.976 L 9.5 12 C 9.5 13.657 8.157 15 6.5 15 C 4.843 15 3.5 13.657 3.5 12 C 3.5 10.879 4.115 9.901 5.027 9.386 L 3.072 2.057 C 2.985 1.728 2.687 1.5 2.348 1.5 L 0.75 1.5 C 0.336 1.5 0 1.164 0 0.75 C 0 0.336 0.336 0 0.75 0 L 2.348 0 C 3.367 0 4.259 0.685 4.522 1.67 L 5.064 3.705 C 5.087 3.689 5.11 3.673 5.134 3.659 C 5.321 3.54 5.529 3.448 5.754 3.388 L 10.356 2.157 C 11.407 1.876 12.483 2.387 12.95 3.324 C 13.017 3.458 13.071 3.601 13.111 3.751 L 14.339 8.358 C 14.658 9.558 13.945 10.791 12.744 11.111 L 9.5 11.976 Z M 10.743 3.606 C 11.144 3.499 11.555 3.737 11.662 4.137 L 12.889 8.744 C 12.996 9.144 12.758 9.555 12.358 9.662 L 9.114 10.527 C 8.599 9.615 7.621 9 6.5 9 L 6.476 9 L 5.611 5.755 C 5.504 5.355 5.742 4.944 6.142 4.837 L 7.736 4.41 L 8.378 6.701 C 8.489 7.1 8.903 7.334 9.302 7.222 C 9.701 7.111 9.934 6.697 9.822 6.298 L 9.185 4.023 L 10.743 3.606 Z" fill="currentColor" fill-rule="evenodd"></path>
</svg>