<svg xmlns="http://www.w3.org/2000/svg" width="16" height="12.500" viewBox="0 0 16 12.500" fill="none">
  <path d="M 5.5 4.5 C 6.328 4.5 7 3.828 7 3 C 7 2.172 6.328 1.5 5.5 1.5 C 4.672 1.5 4 2.172 4 3 C 4 3.828 4.672 4.5 5.5 4.5 Z M 5.5 6 C 7.157 6 8.5 4.657 8.5 3 C 8.5 1.343 7.157 0 5.5 0 C 3.843 0 2.5 1.343 2.5 3 C 2.5 4.657 3.843 6 5.5 6 Z M 2.471 8.886 C 1.694 9.426 1.5 9.948 1.5 10.192 C 1.5 10.638 1.862 11 2.308 11 L 8.692 11 C 9.138 11 9.5 10.638 9.5 10.192 C 9.5 9.948 9.306 9.426 8.529 8.886 C 7.792 8.375 6.718 8 5.5 8 C 4.282 8 3.208 8.375 2.471 8.886 Z M 0 10.192 C 0 8.346 2.475 6.5 5.5 6.5 C 6.681 6.5 7.778 6.781 8.677 7.234 C 9.45 6.786 10.433 6.5 11.5 6.5 C 13.975 6.5 16 8.038 16 9.577 C 16 10.639 15.139 11.5 14.077 11.5 L 10.594 11.5 C 10.178 12.104 9.481 12.5 8.692 12.5 L 2.308 12.5 C 1.033 12.5 0 11.467 0 10.192 Z M 10.991 10 L 14.077 10 C 14.311 10 14.5 9.811 14.5 9.577 C 14.5 9.474 14.404 9.105 13.812 8.686 C 13.257 8.294 12.437 8 11.5 8 C 10.983 8 10.501 8.09 10.08 8.236 C 10.606 8.77 10.934 9.381 10.991 10 Z M 12.5 3.5 C 12.5 4.052 12.052 4.5 11.5 4.5 C 10.948 4.5 10.5 4.052 10.5 3.5 C 10.5 2.948 10.948 2.5 11.5 2.5 C 12.052 2.5 12.5 2.948 12.5 3.5 Z M 14 3.5 C 14 4.881 12.881 6 11.5 6 C 10.119 6 9 4.881 9 3.5 C 9 2.119 10.119 1 11.5 1 C 12.881 1 14 2.119 14 3.5 Z" fill="currentColor" fill-rule="evenodd"></path>
</svg>