<svg xmlns="http://www.w3.org/2000/svg" width="14.750" height="14" viewBox="0 0 14.750 14" fill="none">
  <path d="M 7 5.5 C 8.105 5.5 9 4.605 9 3.5 C 9 2.395 8.105 1.5 7 1.5 C 5.895 1.5 5 2.395 5 3.5 C 5 4.605 5.895 5.5 7 5.5 Z M 7 7 C 8.933 7 10.5 5.433 10.5 3.5 C 10.5 1.567 8.933 0 7 0 C 5.067 0 3.5 1.567 3.5 3.5 C 3.5 5.433 5.067 7 7 7 Z M 8 8.225 C 8 7.84 7.706 7.516 7.321 7.505 C 7.215 7.502 7.108 7.5 7 7.5 C 3.15 7.5 0 9.5 0 11.5 C 0 12.881 1.119 14 2.5 14 L 11.25 14 C 11.664 14 12 13.664 12 13.25 C 12 12.836 11.664 12.5 11.25 12.5 L 2.5 12.5 C 1.948 12.5 1.5 12.052 1.5 11.5 C 1.5 11.295 1.72 10.691 2.82 10.041 C 3.838 9.44 5.32 9 7 9 C 7.058 9 7.117 9.001 7.175 9.002 C 7.617 9.01 8 8.667 8 8.225 Z M 12.75 7 C 12.75 6.586 12.414 6.25 12 6.25 C 11.586 6.25 11.25 6.586 11.25 7 L 11.25 8.25 L 10 8.25 C 9.586 8.25 9.25 8.586 9.25 9 C 9.25 9.414 9.586 9.75 10 9.75 L 11.25 9.75 L 11.25 11 C 11.25 11.414 11.586 11.75 12 11.75 C 12.414 11.75 12.75 11.414 12.75 11 L 12.75 9.75 L 14 9.75 C 14.414 9.75 14.75 9.414 14.75 9 C 14.75 8.586 14.414 8.25 14 8.25 L 12.75 8.25 L 12.75 7 Z" fill="currentColor" fill-rule="evenodd"></path>
</svg>