<svg xmlns="http://www.w3.org/2000/svg" width="16" height="10" viewBox="0 0 16 10" fill="none">
  <path d="M 3 1.5 L 8.5 1.5 C 9.328 1.5 10 2.172 10 3 L 10 3.5 L 10 6.5 L 10 7 C 10 7.828 9.328 8.5 8.5 8.5 L 3 8.5 C 2.172 8.5 1.5 7.828 1.5 7 L 1.5 3 C 1.5 2.172 2.172 1.5 3 1.5 Z M 11.452 7.537 C 11.199 8.938 9.973 10 8.5 10 L 3 10 C 1.343 10 0 8.657 0 7 L 0 3 C 0 1.343 1.343 0 3 0 L 8.5 0 C 9.973 0 11.199 1.062 11.452 2.463 L 13.006 1.353 C 13.327 1.123 13.712 1 14.107 1 C 15.152 1 16 1.848 16 2.893 L 16 7.107 C 16 8.152 15.152 9 14.107 9 C 13.712 9 13.327 8.877 13.006 8.647 L 11.452 7.537 Z M 11.5 5.728 L 13.878 7.427 C 13.945 7.474 14.025 7.5 14.107 7.5 C 14.324 7.5 14.5 7.324 14.5 7.107 L 14.5 2.893 C 14.5 2.676 14.324 2.5 14.107 2.5 C 14.025 2.5 13.945 2.526 13.878 2.573 L 11.5 4.272 L 11.5 5.728 Z" fill="currentColor" fill-rule="evenodd"></path>
</svg>