<svg xmlns="http://www.w3.org/2000/svg" width="12" height="16" viewBox="0 0 12 16" fill="none">
  <path d="M 3.042 0.156 C 3.282 -0.029 3.609 -0.051 3.872 0.099 C 4.704 0.574 5.379 0.849 6.028 0.985 C 6.672 1.119 7.332 1.124 8.144 1.008 C 8.394 0.972 8.645 1.064 8.812 1.254 C 8.979 1.443 9.04 1.704 8.974 1.947 L 8.412 4.007 C 10.957 5.759 12 10.143 12 12.75 C 12 14.75 9 16 6 16 C 3 16 0 14.75 0 12.75 C 0 10.142 1.044 5.755 3.592 4.005 L 2.775 0.943 C 2.697 0.651 2.803 0.34 3.042 0.156 Z M 5.993 5.601 C 6.528 5.606 7.036 5.485 7.597 5.269 C 8.146 5.654 8.644 6.252 9.083 7.054 C 8.277 7.657 7.203 7.94 6.123 7.76 C 5.715 7.692 5.328 7.968 5.26 8.377 C 5.192 8.785 5.468 9.172 5.877 9.24 C 7.242 9.467 8.613 9.16 9.706 8.447 C 10.25 9.941 10.5 11.569 10.5 12.75 C 10.5 12.899 10.386 13.318 9.454 13.783 C 8.579 14.221 7.318 14.5 6 14.5 C 4.682 14.5 3.421 14.221 2.546 13.783 C 1.614 13.318 1.5 12.899 1.5 12.75 C 1.5 12.34 1.53 11.876 1.592 11.382 C 3.164 12.32 4.963 12.729 6.843 12.494 C 7.254 12.443 7.546 12.068 7.494 11.657 C 7.443 11.246 7.068 10.954 6.657 11.006 C 4.938 11.221 3.301 10.781 1.889 9.787 C 2.088 8.979 2.366 8.16 2.729 7.417 C 3.214 6.428 3.776 5.707 4.407 5.266 C 4.956 5.467 5.46 5.596 5.993 5.601 Z M 4.645 2.135 L 5.124 3.928 C 5.488 4.048 5.757 4.099 6.006 4.101 C 6.253 4.103 6.519 4.059 6.877 3.935 L 7.244 2.588 C 6.726 2.6 6.227 2.558 5.722 2.453 C 5.361 2.378 5.006 2.272 4.645 2.135 Z" fill="currentColor" fill-rule="evenodd"></path>
</svg>