<svg xmlns="http://www.w3.org/2000/svg" width="14" height="14" viewBox="0 0 14 14" fill="none">
  <path d="M 7.581 8.298 L 8.357 8.441 C 8.564 8.48 8.779 8.5 9 8.5 C 10.933 8.5 12.5 6.933 12.5 5 C 12.5 4.882 12.49 4.764 12.473 4.648 L 11.082 6.039 C 10.787 6.334 10.387 6.5 9.969 6.5 C 8.605 6.5 7.5 5.395 7.5 4.031 C 7.5 3.613 7.666 3.213 7.961 2.918 L 9.352 1.527 C 9.236 1.51 9.118 1.5 9 1.5 C 7.067 1.5 5.5 3.067 5.5 5 C 5.5 5.221 5.52 5.436 5.559 5.643 L 5.702 6.419 L 1.889 10.232 C 1.64 10.481 1.5 10.819 1.5 11.172 C 1.5 11.905 2.095 12.5 2.828 12.5 C 3.181 12.5 3.519 12.36 3.768 12.111 L 7.581 8.298 Z M 11.398 1.511 C 11.544 1.143 11.398 0.699 11.014 0.507 C 11.005 0.502 10.996 0.498 10.987 0.493 C 10.871 0.432 10.014 0 9 0 C 6.239 0 4 2.239 4 5 C 4 5.313 4.029 5.619 4.084 5.916 L 0.828 9.172 C 0.298 9.702 0 10.421 0 11.172 C 0 12.734 1.266 14 2.828 14 C 3.579 14 4.298 13.702 4.828 13.172 L 8.084 9.916 C 8.381 9.971 8.687 10 9 10 C 11.761 10 14 7.761 14 5 C 14 3.986 13.568 3.129 13.507 3.013 C 13.502 3.004 13.498 2.995 13.493 2.986 C 13.301 2.602 12.857 2.456 12.489 2.602 C 12.392 2.641 12.301 2.699 12.221 2.779 L 10.022 4.978 C 10.008 4.992 9.989 5 9.969 5 C 9.434 5 9 4.566 9 4.031 C 9 4.011 9.008 3.992 9.022 3.978 L 11.22 1.78 C 11.301 1.699 11.359 1.608 11.398 1.511 Z" fill="currentColor" fill-rule="evenodd"></path>
</svg>