<svg xmlns="http://www.w3.org/2000/svg" width="16" height="16" viewBox="0 0 16 16"><path d="M 13.609 6.414 L 5.978 14.494 C 5.673 14.817 5.248 15 4.804 15 C 3.684 15 2.905 13.887 3.287 12.834 L 4.5 9.5 L 1.677 9.5 C 0.751 9.5 0 8.749 0 7.823 C 0 7.61 0.041 7.398 0.12 7.2 L 2.443 1.393 C 2.779 0.552 3.594 0 4.5 0 L 8.5 0 C 9.468 0 10.138 0.967 9.798 1.873 L 9 4 L 12.569 4 C 13.359 4 14 4.641 14 5.431 C 14 5.796 13.86 6.148 13.609 6.414 Z" transform="translate(1 0.5)" fill="currentColor" fill-rule="nonzero"></path></svg>